<svg xmlns="http://www.w3.org/2000/svg" width="1440.111" height="553.027" viewBox="0 0 1440.111 553.027">
    <defs>
        <linearGradient id="linear-gradient" x1=".5" x2=".5" y1=".172" y2=".905" gradientUnits="objectBoundingBox">
            <stop offset=".248" stop-color="#d8f3f7"/>
            <stop offset="1" stop-color="#fff"/>
        </linearGradient>
        <style>
            .cls-1{fill:url(#linear-gradient)}
        </style>
    </defs>
    <g id="bg-wave" transform="translate(0 -1003.587)">
        <g id="Group_1122" data-name="Group 1122" transform="rotate(180 720.056 778.307)">
            <path id="Path_1154" d="M678.063 553.022H0V21.834L22.808 9.525a57.886 57.886 0 0 1 54-.518 57.889 57.889 0 0 0 50.41 1.262l9.792-4.439a57.889 57.889 0 0 1 47.69-.052l7.444 3.355a57.889 57.889 0 0 0 49.04-.687l2.772-1.346a57.889 57.889 0 0 1 49.939-.273l6.893 3.249a57.887 57.887 0 0 0 47 1.054l14.462-6.041a57.889 57.889 0 0 1 47.58 1.338l5.525 2.682a57.885 57.885 0 0 0 49.442.522l8.825-4.055a57.884 57.884 0 0 1 49.169.391l8.376 4.011a57.882 57.882 0 0 0 46.842 1.4l17.424-7.1a57.89 57.89 0 0 1 45.154.624l20.817 9.16a36.019 36.019 0 0 0 28.863.065c6.457-2.807 19.819-9 28.4-9.24A62.6 62.6 0 0 1 764 22.628v530.4z" class="cls-1" data-name="Path 1154"/>
        </g>
        <g id="Group_1168" data-name="Group 1168" transform="rotate(180 382.001 778.307)">
            <path id="Path_1154-2" d="M678.063 553.022H0V21.834L22.808 9.525a57.886 57.886 0 0 1 54-.518 57.889 57.889 0 0 0 50.41 1.262l9.792-4.439a57.889 57.889 0 0 1 47.69-.052l7.444 3.355a57.889 57.889 0 0 0 49.04-.687l2.772-1.346a57.889 57.889 0 0 1 49.939-.273l6.893 3.249a57.887 57.887 0 0 0 47 1.054l14.462-6.041a57.889 57.889 0 0 1 47.58 1.338l5.525 2.682a57.885 57.885 0 0 0 49.442.522l8.825-4.055a57.884 57.884 0 0 1 49.169.391l8.376 4.011a57.882 57.882 0 0 0 46.842 1.4l17.424-7.1a57.89 57.89 0 0 1 45.154.624l20.817 9.16a36.019 36.019 0 0 0 28.863.065c6.457-2.807 19.819-9 28.4-9.24A62.6 62.6 0 0 1 764 22.628v530.4z" class="cls-1" data-name="Path 1154"/>
        </g>
    </g>
</svg>
