<svg xmlns="http://www.w3.org/2000/svg" width="178.058" height="147.366" viewBox="0 0 178.058 147.366">
    <defs>
        <style>
            .cls-1,.cls-2{fill:#00c1d5}.cls-2,.cls-3{stroke:#fff;stroke-miterlimit:10}.cls-3,.cls-5{fill:none}.cls-4{fill:#e84040}.cls-5{stroke:#195d8f;stroke-width:3px}
        </style>
    </defs>
    <g id="pic-pending" transform="translate(-213.97 -1756.5)">
        <g id="Group_1191" data-name="Group 1191" transform="translate(302 1871.833)">
            <path id="Rectangle_1684" d="M0 0H35.465V26.599H0z" class="cls-1" data-name="Rectangle 1684"/>
            <path id="Path_1224" d="M1377.906 821.374v5.911h-10.344v-5.911" class="cls-2" data-name="Path 1224" transform="translate(-1355.249 -821.374)"/>
        </g>
        <g id="Group_1273" data-name="Group 1273" transform="translate(338.571 1871.833)">
            <path id="Rectangle_1684-2" d="M0 0H35.465V26.599H0z" class="cls-1" data-name="Rectangle 1684"/>
            <path id="Path_1224-2" d="M1377.906 821.374v5.911h-10.344v-5.911" class="cls-2" data-name="Path 1224" transform="translate(-1355.249 -821.374)"/>
        </g>
        <g id="Group_1275" data-name="Group 1275" transform="translate(228.571 1871.833)">
            <path id="Rectangle_1684-3" d="M0 0H35.465V26.599H0z" class="cls-1" data-name="Rectangle 1684"/>
            <path id="Path_1224-3" d="M1377.906 821.374v5.911h-10.344v-5.911" class="cls-2" data-name="Path 1224" transform="translate(-1355.249 -821.374)"/>
        </g>
        <g id="Group_1192" data-name="Group 1192" transform="translate(302 1843)">
            <path id="Rectangle_1685" d="M0 0H35.465V26.599H0z" class="cls-1" data-name="Rectangle 1685"/>
            <path id="Path_1225" d="M1377.9 794.39v5.91h-10.344v-5.91" class="cls-3" data-name="Path 1225" transform="translate(-1355.24 -794.39)"/>
        </g>
        <g id="Group_1274" data-name="Group 1274" transform="translate(338.563 1843)">
            <path id="Rectangle_1685-2" d="M0 0H35.465V26.599H0z" class="cls-1" data-name="Rectangle 1685"/>
            <path id="Path_1225-2" d="M1377.9 794.39v5.91h-10.344v-5.91" class="cls-3" data-name="Path 1225" transform="translate(-1355.24 -794.39)"/>
        </g>
        <g id="Group_1276" data-name="Group 1276" transform="translate(228.563 1843)">
            <path id="Rectangle_1685-3" d="M0 0H35.465V26.599H0z" class="cls-1" data-name="Rectangle 1685"/>
            <path id="Path_1225-3" d="M1377.9 794.39v5.91h-10.344v-5.91" class="cls-3" data-name="Path 1225" transform="translate(-1355.24 -794.39)"/>
        </g>
        <g id="Group_1193" data-name="Group 1193" transform="translate(265.12 1843)">
            <path id="Rectangle_1686" d="M0 0H35.465V26.599H0z" class="cls-1" data-name="Rectangle 1686"/>
            <path id="Path_1226" d="M1341.781 794.307v5.911h-10.344v-5.911" class="cls-2" data-name="Path 1226" transform="translate(-1319.123 -794.307)"/>
        </g>
        <g id="Group_1194" data-name="Group 1194" transform="translate(265.102 1871.833)">
            <path id="Rectangle_1687" d="M0 0H35.465V26.599H0z" class="cls-1" data-name="Rectangle 1687"/>
            <path id="Path_1227" d="M1341.762 821.374v5.911h-10.344v-5.911" class="cls-2" data-name="Path 1227" transform="translate(-1319.105 -821.374)"/>
        </g>
        <path id="Rectangle_1702" d="M0 0H176.506V3.007H0z" class="cls-4" data-name="Rectangle 1702" transform="rotate(-180 195.619 920.24)"/>
        <path id="Rectangle_1703" d="M0 0H176.506V3.007H0z" class="cls-4" data-name="Rectangle 1703" transform="rotate(-180 195.619 951.933)"/>
        <path id="Rectangle_1764" d="M0 0H66.392V3.007H0z" class="cls-4" data-name="Rectangle 1764" transform="rotate(90 -805.84 1031.634)"/>
        <path id="Rectangle_1765" d="M0 0H66.392V3.007H0z" class="cls-4" data-name="Rectangle 1765" transform="rotate(90 -728.647 1108.827)"/>
        <path id="Line_1459" d="M0 32.49L86 0" class="cls-5" data-name="Line 1459" transform="translate(214.5 1805.01)"/>
        <path id="Line_1460" d="M89 33.49L0 0" class="cls-5" data-name="Line 1460" transform="translate(302.5 1805.01)"/>
        <path id="Path_1170" fill="none" stroke="#0d395a" stroke-linecap="round" stroke-linejoin="round" stroke-width="4px" d="M517.821 518.5a6.761 6.761 0 0 1-12.6-3.4 6.625 6.625 0 0 1 6.6-6.761l-.008-.845v-2.873" data-name="Path 1170" transform="translate(-211.583 1283.372)"/>
        <path id="Path_1171" fill="#195d8f" d="M521.426 484.237H502.4l-2.4 4.2 6.207 15.819h11.013l6.007-15.018z" data-name="Path 1171" transform="translate(-211.485 1283.752)"/>
        <path id="Line_1461" d="M0 12L0 0" class="cls-5" data-name="Line 1461" transform="translate(300.5 1756.5)"/>
    </g>
</svg>
