<svg xmlns="http://www.w3.org/2000/svg" width="23.999" height="23.999" viewBox="0 0 23.999 23.999">
    <g id="icon-twitter">
        <path id="Rectangle_393" fill="none" d="M0 0H23.999V23.999H0z" data-name="Rectangle 393"/>
        <path id="Path_2" fill="#fff" fill-rule="evenodd" d="M45.6 21.466a13.875 13.875 0 0 0 14-14V6.8A10.838 10.838 0 0 0 62 4.267a11.068 11.068 0 0 1-2.8.8A5.187 5.187 0 0 0 61.332 2.4a12.229 12.229 0 0 1-3.067 1.2 4.762 4.762 0 0 0-3.6-1.6 5.009 5.009 0 0 0-4.933 4.933A2.6 2.6 0 0 0 49.866 8a13.785 13.785 0 0 1-10.133-5.2 5.106 5.106 0 0 0-.667 2.533A5.3 5.3 0 0 0 41.2 9.466a4.5 4.5 0 0 1-2.267-.666 4.873 4.873 0 0 0 4 4.8 4.11 4.11 0 0 1-1.333.133 2.269 2.269 0 0 1-.933-.133 5.051 5.051 0 0 0 4.666 3.466A10.066 10.066 0 0 1 39.2 19.2a3.691 3.691 0 0 1-1.2-.133 12.585 12.585 0 0 0 7.6 2.4" data-name="Path 2" transform="translate(-38 .999)"/>
    </g>
</svg>
