<svg xmlns="http://www.w3.org/2000/svg" width="23.999" height="23.999" viewBox="0 0 23.999 23.999">
    <g id="icon-ig">
        <path id="Path_3" fill="#fff" fill-rule="evenodd" d="M12 2.133a36.793 36.793 0 0 1 4.8.133 6.184 6.184 0 0 1 2.267.4 4.682 4.682 0 0 1 2.267 2.267 6.184 6.184 0 0 1 .4 2.267c0 1.2.133 1.6.133 4.8a36.793 36.793 0 0 1-.133 4.8 6.184 6.184 0 0 1-.4 2.267 4.682 4.682 0 0 1-2.267 2.267 6.184 6.184 0 0 1-2.267.4c-1.2 0-1.6.133-4.8.133a36.793 36.793 0 0 1-4.8-.133 6.184 6.184 0 0 1-2.267-.4 4.682 4.682 0 0 1-2.267-2.267 6.184 6.184 0 0 1-.4-2.267c0-1.2-.133-1.6-.133-4.8a36.793 36.793 0 0 1 .133-4.8 6.184 6.184 0 0 1 .4-2.267A4.789 4.789 0 0 1 3.6 3.6a2.254 2.254 0 0 1 1.333-.933 6.184 6.184 0 0 1 2.267-.4 36.793 36.793 0 0 1 4.8-.134M12 0a39.394 39.394 0 0 0-4.934.133 8.231 8.231 0 0 0-2.933.534A5.219 5.219 0 0 0 2 2 5.219 5.219 0 0 0 .667 4.133a6.075 6.075 0 0 0-.534 2.933A39.394 39.394 0 0 0 0 12a39.394 39.394 0 0 0 .133 4.933 8.231 8.231 0 0 0 .533 2.933A5.219 5.219 0 0 0 2 22a5.219 5.219 0 0 0 2.133 1.333 8.231 8.231 0 0 0 2.933.533A39.394 39.394 0 0 0 12 24a39.394 39.394 0 0 0 4.933-.133 8.231 8.231 0 0 0 2.933-.533 5.594 5.594 0 0 0 3.467-3.467 8.231 8.231 0 0 0 .533-2.933C23.866 15.6 24 15.2 24 12a39.394 39.394 0 0 0-.133-4.933 8.231 8.231 0 0 0-.533-2.933A5.219 5.219 0 0 0 22 2 5.219 5.219 0 0 0 19.866.667a8.231 8.231 0 0 0-2.933-.534A39.394 39.394 0 0 0 12 0m0 5.866A6.034 6.034 0 0 0 5.866 12 6.133 6.133 0 1 0 12 5.866M12 16a3.928 3.928 0 0 1-4-4 3.928 3.928 0 0 1 4-4 3.928 3.928 0 0 1 4 4 3.928 3.928 0 0 1-4 4m6.4-11.867A1.467 1.467 0 1 0 19.866 5.6 1.48 1.48 0 0 0 18.4 4.133" data-name="Path 3"/>
    </g>
</svg>
