<svg xmlns="http://www.w3.org/2000/svg" width="21" height="20" viewBox="0 0 21 20">
    <g fill="none" fill-rule="evenodd">
        <g fill="#4CAF50" fill-rule="nonzero">
            <g>
                <g>
                    <path d="M10.5 0C4.712 0 0 3.824 0 8.525c0 4.21 3.736 7.736 8.78 8.407.343.072.808.226.926.516.105.264.07.67.034.945l-.144.893c-.04.263-.21 1.037.918.564 1.13-.471 6.052-3.569 8.256-6.104C20.28 12.094 21 10.401 21 8.525 21 3.825 16.288 0 10.5 0zM6.39 11.32H4.302c-.301 0-.55-.25-.55-.551V6.594c0-.302.248-.551.55-.551.305 0 .552.25.552.551v3.624H6.39c.305 0 .55.247.55.551 0 .3-.246.55-.55.55zm2.158-.551c0 .3-.247.55-.552.55-.302 0-.549-.25-.549-.55V6.594c0-.302.247-.551.551-.551.303 0 .55.25.55.551v4.175zm5.023 0c0 .236-.152.446-.378.522-.056.018-.116.027-.174.027-.184 0-.342-.08-.446-.22l-2.138-2.902v2.572c0 .301-.244.55-.552.55-.303 0-.548-.249-.548-.55V6.594c0-.236.152-.446.377-.52.052-.02.119-.03.17-.03.17 0 .328.092.433.223l2.154 2.914V6.594c0-.302.247-.551.551-.551.302 0 .551.25.551.551v4.175zm3.373-2.64c.306 0 .552.25.552.553 0 .302-.246.551-.552.551H15.41v.985h1.535c.306 0 .552.247.552.551 0 .3-.246.55-.552.55h-2.087c-.302 0-.549-.25-.549-.55V6.594c0-.302.247-.551.551-.551h2.088c.303 0 .549.25.549.551 0 .305-.246.551-.552.551H15.41v.985h1.535z" transform="translate(-333 -1101) translate(333 1098) translate(0 3)"/>
                </g>
            </g>
        </g>
    </g>
</svg>
