<svg xmlns="http://www.w3.org/2000/svg" width="17" height="24" viewBox="0 0 17 24">
    <g fill="none" fill-rule="evenodd">
        <g fill="#4D4D4D" fill-rule="nonzero">
            <g>
                <g>
                    <path d="M8.5 0C3.813 0 0 3.742 0 8.342 0 14.124 8.508 24 8.508 24S17 13.84 17 8.342C17 3.742 13.187 0 8.5 0zm2.565 10.785c-.708.694-1.636 1.04-2.565 1.04s-1.858-.346-2.564-1.04c-1.415-1.388-1.415-3.646 0-5.034C6.62 5.079 7.53 4.708 8.5 4.708c.969 0 1.88.37 2.565 1.043 1.414 1.388 1.414 3.646 0 5.034z" transform="translate(-342 -4211) translate(0 4011) translate(342 200)"/>
                </g>
            </g>
        </g>
    </g>
</svg>
