<svg xmlns="http://www.w3.org/2000/svg" width="17" height="17" viewBox="0 0 17 17">
    <g fill="none" fill-rule="evenodd">
        <g fill="#4D4D4D" fill-rule="nonzero">
            <g>
                <g>
                    <g>
                        <path d="M16.554 12.476l-2.377-2.372c-.85-.847-2.293-.508-2.632.593-.255.763-1.104 1.186-1.868 1.017-1.698-.424-3.99-2.627-4.415-4.406-.255-.763.254-1.61 1.018-1.864 1.104-.34 1.444-1.78.595-2.627L4.497.445c-.679-.593-1.698-.593-2.292 0L.592 2.055c-1.614 1.694.17 6.185 4.16 10.167s8.49 5.846 10.189 4.152l1.613-1.61c.595-.678.595-1.695 0-2.288z" transform="translate(-342 -4262) translate(0 4011) translate(342 246) translate(0 5)"/>
                    </g>
                </g>
            </g>
        </g>
    </g>
</svg>
