<svg xmlns="http://www.w3.org/2000/svg" id="pic-news-2" width="107.933" height="202.646" viewBox="0 0 107.933 202.646">
    <defs>
        <style>
            .cls-1{fill:#d8f3f7}.cls-2{fill:#eea886}.cls-3{fill:#0d395a}.cls-4{fill:#00c1d5}.cls-5{fill:#feaf84}.cls-7{fill:#0f264c}.cls-8{fill:#195d8f}.cls-9{fill:none;stroke:#fff;stroke-miterlimit:10;stroke-width:.551px}
        </style>
    </defs>
    <ellipse id="Ellipse_218" cx="35.364" cy="6.364" class="cls-1" rx="35.364" ry="6.364" transform="translate(37.205 189.917)"/>
    <g id="Group_1367" transform="translate(4.193 101.666)">
        <g id="Group_1362" transform="translate(63.95 77.305)">
            <path id="Path_1293" d="M461.157 262.425a44.884 44.884 0 0 1-.046 5.626c-.24 1.482-5 1.185-5.485.365s-.174-7.7-.174-7.7" class="cls-2" transform="translate(-454.283 -260.72)"/>
            <path id="Path_1294" d="M447.25 267.643c-.072 1.559.046 4.494.046 4.494l4.906.991.587-.851a8.516 8.516 0 0 0 2.915 1.451 18.97 18.97 0 0 0 4.6.272c4.006-.419 6.729-1.775 6.846-2.367.484-2.477-11.247-4.324-11.914-5.895-.485-1.14-.235-1.412-.892-1.233a1.615 1.615 0 0 0-1.009.768 2.9 2.9 0 0 1-3.027 1.425 3.462 3.462 0 0 1-1.874-.982 2 2 0 0 0-1.184 1.927z" class="cls-3" transform="translate(-447.227 -258.482)"/>
        </g>
        <g id="Group_1365" transform="translate(27.335)">
            <g id="Group_1364">
                <g id="Group_1363">
                    <path id="Path_1295" d="M452.485 235.437c7.31-.128 26.653 2.88 34.029 3.533-.381 3.053-2.029 7.215-2.095 11.415-.219 13.866 1.679 31.285 3.261 42.429 0 0 2.925 3.058 7.166-.1 3.3-18.857 8.012-56.656 6.261-64.26-2.231-9.68-31.763-17.329-50.041-15.907" class="cls-3" transform="translate(-451.064 -212.379)"/>
                </g>
            </g>
        </g>
        <g id="Group_1366" transform="translate(46.02 82.877)">
            <path id="Path_1297" d="M472.657 266.118a44.734 44.734 0 0 1-.256 5.621c-.293 1.473-5.039 1-5.495.16s.114-7.7.114-7.7" class="cls-2" transform="translate(-465.412 -264.204)"/>
            <path id="Path_1298" d="M458.948 270.992c-.13 1.556-.12 4.494-.12 4.494l4.865 1.172.619-.827a8.494 8.494 0 0 0 2.859 1.558 18.992 18.992 0 0 0 4.588.445c4.02-.27 6.793-1.522 6.931-2.111.577-2.456-11.077-4.74-11.685-6.334-.441-1.158-.182-1.42-.846-1.267a1.617 1.617 0 0 0-1.036.731 2.9 2.9 0 0 1-3.08 1.311 3.483 3.483 0 0 1-1.836-1.052 2.005 2.005 0 0 0-1.259 1.88z" class="cls-3" transform="translate(-458.828 -261.881)"/>
        </g>
        <path id="Path_1299" d="M466.343 213.092c-1.913 4.449-3.01 12.749-1.263 16.377 1.5 3.117 2.6 4.169 5.364 5.4 9.226 4.115 22.907 3.27 36.748 2.426-5.714 15.437 3.186 46.673 4.476 60.69 5.186 2.3 8.119-.147 8.119-.147-.589-28.533 5.771-68.386 1.922-75.2-2.34-4.145-30.266-9.616-30.822-9.544" class="cls-3" transform="translate(-464.204 -211.952)"/>
    </g>
    <g id="Group_1371">
        <path id="Path_1300" d="M461.55 194.795c1.58-.512 5.629-6.1 6.9-5.824 1.129 1.532 2.471 11.375 2.471 11.375.429 2.8 17.517 28.5 17.517 28.5a5.515 5.515 0 0 1-1.884 3.422 13.731 13.731 0 0 1-3.683 1.917s-18.5-20.378-22.785-27.522c-.215-1.43-2.139-10.699 1.464-11.868z" class="cls-2" transform="translate(-419.245 -124.745)"/>
        <path id="Path_1301" d="M470.042 188.194s3.329 7.75 6.817 15.376a7.963 7.963 0 0 1 3.875-1.268c6.464-.668 9.547-1.62 10.886-2.184-1.674-6.763-3.576-14.53-3.928-16.134-1.534-6.868-4.686-9.669-4.686-9.669z" class="cls-4" transform="translate(-439.01 -133.521)"/>
        <path id="Path_1302" d="M476.962 238.265c7.539.956 21.384.612 30.8.956 8.429.307 10.112 1.929 10.112 1.929-.318-12.04-2.089-20.69-1.466-29.642 1.051-15.119 2.391-32.1-.608-35.467-5.882-4.5-17.775-6.365-30.044-2.547-9.218 2.859-12.131 5.562-11.572 12.491.162 2.023 5.114 31.262 3.86 45.874a7 7 0 0 1-1.127 3.078c-.945 1.513-.804 2.752.045 3.328z" class="cls-4" transform="translate(-470.773 -135.245)"/>
        <g id="Group_1368" transform="translate(19.199 103.122)">
            <path id="Path_1303" d="M463 213.29l44.692.654-26.835 9.3z" class="cls-1" transform="translate(-463 -213.29)"/>
            <path id="Path_1304" d="M497.533 224.3l-17.821-9.431-.107-1.58 18.138 9.483z" class="cls-1" transform="translate(-479.604 -213.29)"/>
        </g>
        <path id="Path_1305" d="M472.886 210.306l3.766 1.74a6.264 6.264 0 0 1 7.145-.28c3.742 2.442-.016 10.34-2.7 9.761s-10.769-5.736-10.769-5.736z" class="cls-5" transform="translate(-433.295 -111.956)"/>
        <path id="Path_1306" fill="#ed6d52" d="M494.8 214.682s-10.516-6.235-17.949-11.907c7.24 5.532 17.649 12.877 18.178 13.264a13.373 13.373 0 0 0-.229-1.357z" transform="translate(-453.032 -116.468)"/>
        <path id="Path_1307" d="M493.432 202.168a74.815 74.815 0 0 0 14.725.52c.229-1.885.459-3.859.67-6.147.334-3.4 1.2-7.822.721-11.185-.616-4.562-2.341-11.872-7.855-10.956-9.845 1.619-8.261 27.592-8.261 27.768z" class="cls-4" transform="translate(-493.338 -133.517)"/>
        <path id="Path_1308" d="M476.734 191.816c.211 5.215-.123 13.651 3 17.9 4.844 6.64 36.578 18.059 36.578 18.059s1.291.523 2.031-2.771a5.277 5.277 0 0 0-.048-2.4s-10.767-7.591-18.2-13.264a55.109 55.109 0 0 0-10.938-6.71c.406-4.086.811-7.116 1.215-10.427a62.394 62.394 0 0 1-13.638-.387z" class="cls-2" transform="translate(-475.548 -123.034)"/>
        <path id="Path_1309" d="M476.77 213.425a5.036 5.036 0 0 0-.035-2.29 7.189 7.189 0 0 1 .035 2.29z" class="cls-5" transform="translate(-434.977 -111.459)"/>
        <g id="Group_1369" transform="translate(36.098 77.334)">
            <path id="Path_1310" d="M449.7 233.962l41.372-2.815a2.925 2.925 0 0 0 2.7-2.519l3.931-28.68a2.451 2.451 0 0 0-2.6-2.779l-38.75 2.635a2.455 2.455 0 0 0-2.263 2.114z" class="cls-1" transform="translate(-449.704 -197.164)"/>
        </g>
        <g id="Group_1370" transform="translate(13.363)">
            <path id="Path_1311" d="M481.227 157.071s1.81 5.151-1.182 6.966c0 0 .835 2.6-2.207 3.09s-.294-9.438-.294-9.438" class="cls-7" transform="translate(-452.21 -143.853)"/>
            <path id="Path_1312" d="M494.307 170.435s.072 1.254.171 2.372a19.558 19.558 0 0 1 .382 2.324 8.937 8.937 0 0 1-.4 3.046c-.373.659-1.2-.085-1.977.126-7.428 2.029-8.468-2.687-8.468-2.687.734-2.8-.632-9.913-.632-9.913" class="cls-2" transform="translate(-476.474 -138.681)"/>
            <path id="Path_1313" d="M497.983 170.751a10.76 10.76 0 0 1-3.566 6.083 9.232 9.232 0 0 1-7.22 1.538 11.465 11.465 0 0 1-4.7-20.559c3.339-2.428 11.679-4.324 15.256-1.842 3.64 2.524 1.147 11.029.23 14.78z" class="cls-2" transform="translate(-472.32 -145.21)"/>
            <path id="Path_1315" d="M506.521 159.4c-.377 2.96-3.152 5.244-6.013 5.636-2.923.4-8.6.389-10.543-1.833-.066 2.92-5.354 8.474-8.031 9.344.141 1.94.389 3.083.648 4.8-1.346.66-3.366-1.172-4.137-2.458s-3.652-9.288-2.914-12.864 2.3-6.6 5.944-6.41a7.509 7.509 0 0 1 13.665-3.573c-.149-.216 2.063-.649 2.234-.678a6.8 6.8 0 0 1 2.743.03 8.94 8.94 0 0 1 4.4 2.672 7.368 7.368 0 0 1 2.023 4.19 5.231 5.231 0 0 1-.019 1.144z" class="cls-7" transform="translate(-475.411 -148.805)"/>
            <path id="Path_1316" d="M492.273 160.906a1.2 1.2 0 0 0-.419-.83 2.1 2.1 0 0 0-3.118.544c-1.091 1.315-.817 7.051 1.647 5.266 1.943-1.409 1.967-3.965 1.89-4.98z" class="cls-2" transform="translate(-481.478 -142.332)"/>
        </g>
        <path id="Path_1317" d="M486.011 169.942a20.537 20.537 0 0 0-2.368 3.341 35.563 35.563 0 0 0 3.653 2.738 71.779 71.779 0 0 0 7.3 3.734l1.66-4.118s-7.056-3.798-10.245-5.695z" class="cls-8" transform="translate(-464.926 -136.141)"/>
        <path id="Path_1318" d="M481.5 175.515a19.577 19.577 0 0 1 3.115 3.326 11.173 11.173 0 0 0-.1-5.616s-1.725-2.663-3-3.08c-.002 0 .479 3.755-.015 5.37z" class="cls-8" transform="translate(-450.413 -136.019)"/>
    </g>
    <path id="Path_1319" d="M508.736 183.368s.074 9.982-.44 13.871c0 0-8.616.892-15.354-.361" class="cls-9" transform="translate(-491.757 -128.096)"/>
    <path id="Path_1320" d="M475.131 181.533s2.177 8.6.517 16.08" class="cls-9" transform="translate(-429.676 -129.196)"/>
</svg>
