<svg xmlns="http://www.w3.org/2000/svg" width="147.534" height="140.887" viewBox="0 0 147.534 140.887">
    <defs>
        <style>
            .cls-1{fill:#ffbe9d}.cls-2{fill:#e84040}.cls-4{fill:#195d8f}.cls-6{fill:#0d395a}.cls-7{fill:#eb996e}.cls-11{fill:none;stroke:#195d8f}
        </style>
    </defs>
    <g id="pic-contactsfi" transform="translate(-1176.455 -1099.276)">
        <g id="Group_1443" transform="translate(1176.455 1100.643)">
            <g id="Group_1350" transform="translate(32.407 34.538)">
                <path id="Path_1364" d="M108.683 601.187a1.42 1.42 0 0 1 1.078-1.584l1.394.1 4.984-1.735a1.491 1.491 0 0 1 1.886 1.357c.028 1.433.6 5.334 1.76 4.107.027-.029.056-.051.083-.079 1.644-1.834 3.547-2.718 4.282-2.613a.832.832 0 0 1 .357 1.474.882.882 0 0 1-.3.208c-.051.021-.113.061-.166.089a12.36 12.36 0 0 0-1.9 1.7 6.537 6.537 0 0 0-1.254 1.9c-.336.772-.6 1.453-.8 2.031l-.078 4.583L122 634.144s13.187-13.853 12.882-13.988l-.757 21.563-7.989 6.611a10.047 10.047 0 0 1-16.451-7.907l.461-27.7-.325-3.633z" class="cls-1" transform="translate(-108.667 -597.915)"/>
            </g>
            <g id="Group_1351" transform="translate(94.3 68.265)">
                <path id="Path_1365" d="M-21.36 651.863L-6.93 684.9l11.422 23.83 8.483 2.852s6.714 1.949 6.713 3.339-1.771 1.073-1.771 1.073c-.326 2.074-3.2.9-5.21-.034s-6.48-1.116-6.48-1.116a1.82 1.82 0 0 1 .126 2.914c-.711.5-1.951-.1-2.791-1s-3-1.31-5.4-2.168-2.8-4.091-2.8-4.091l-28.9-48.685z" class="cls-1" transform="translate(33.547 -651.863)"/>
            </g>
            <g id="Group_1354" transform="translate(47.068 48.36)">
                <g id="Group_1352">
                    <path id="Path_1366" d="M30.167 651.924l-3.635 4.8-7.868-17.462s7.636-9.323 10.436-13.233c2.77-3.875 4.848-4.549 4.848-4.549s5.074-1.507 7.611-1.455l12.538.748 12.736 5.56a17.629 17.629 0 0 1 7.667 6.456l11.99 19.261-16.979 7.259-5.693 32.554c-1.093 4.882-2.047 9.49-6.554 11.74l-31.493-30.265 3.689-5.811z" class="cls-2" transform="translate(-18.664 -620.024)"/>
                </g>
                <g id="Group_1353" opacity="0.3" transform="translate(44.61 30.393)">
                    <path id="Path_1367" d="M49.963 690.116c.054-.31-4.035-21.477-4.035-21.477l6.171 9.268" transform="translate(-45.928 -668.639)"/>
                </g>
            </g>
            <g id="Group_1364" transform="translate(.007 80.24)">
                <g id="Group_1362" transform="translate(4.644 29.733)">
                    <g id="Group_1361">
                        <g id="Group_1357" transform="translate(.06)">
                            <g id="Group_1356">
                                <g id="Group_1355">
                                    <path id="Path_1368" d="M170.693 729.774l5.907 20.266-25.176 7.481c-.567-2.449 11.022-11.147 11.022-11.147l-4.319-12.829z" class="cls-4" transform="translate(-151.406 -729.774)"/>
                                </g>
                            </g>
                        </g>
                        <g id="Group_1360" opacity="0.6" transform="translate(0 18.246)">
                            <g id="Group_1359">
                                <g id="Group_1358">
                                    <path id="Path_1369" d="M176.662 760.979l-.675-2.019-23.887 7.927s-.976.821-.615 1.573z" class="cls-4" transform="translate(-151.406 -758.96)"/>
                                </g>
                            </g>
                        </g>
                    </g>
                </g>
                <g id="Group_1363">
                    <path id="Path_1370" d="M66.694 677.574c-.638 4.676.963 9.948 2.654 14.353l11.042 25.96 12.22-1.875a15.733 15.733 0 0 0 5.805 3.921c1.457.486 6.251 1.428 10.195-1.412s5.583 7.777 14.368 10.13 22.084 3.649 28.522-6.627l-30.649-29.536c-.633.151-26.4-17.227-40.319-21.183-.001.001-12.666-2.328-13.838 6.269z" class="cls-6" transform="translate(-66.551 -671.018)"/>
                </g>
            </g>
            <g id="Group_1397" transform="translate(12.609)">
                <g id="Group_1396">
                    <g id="Group_1395">
                        <g id="Group_1383">
                            <g id="Group_1382">
                                <g id="Group_1373">
                                    <g id="Group_1366">
                                        <g id="Group_1365">
                                            <path id="Path_1371" d="M162.266 563.794s-4.088-1.228-9.52-7.289-7.625-13.734-8.343-13.751-3.737-1.7-10.645 10.791-4.789 15.671-3.6 15.734 9.386-1.578 14.361-.635a53.947 53.947 0 0 1 11.231 4.039z" class="cls-4" transform="translate(-128.895 -542.67)"/>
                                        </g>
                                    </g>
                                    <g id="Group_1368" transform="translate(25.952 18.573)">
                                        <g id="Group_1367">
                                            <path id="Path_1372" d="M130.476 582.636l-1.619 2.591-.725 1.161a3.529 3.529 0 0 1-4.7 1.217l-8.679-3.767 6.07-11.459 8.549 5.405a3.529 3.529 0 0 1 1.104 4.852z" class="cls-6" transform="translate(-114.75 -572.378)"/>
                                        </g>
                                    </g>
                                    <g id="Group_1370" transform="translate(19.529 30.227)">
                                        <g id="Group_1369">
                                            <path id="Path_1373" d="M141.029 593.559l-3.254 5.353-1.39-.5-9.833 6.853-2.214-5.265s5.655-1.953 6.814-3.832.02-2.409.02-2.409l2.8-2.739z" class="cls-6" transform="translate(-124.338 -591.02)"/>
                                        </g>
                                    </g>
                                    <g id="Group_1372" transform="translate(.822 .264)">
                                        <g id="Group_1371">
                                            <path id="Path_1374" d="M162.435 553.975c-3.685 6.771-5.467 12.917-3.979 13.727s5.682-4.023 9.368-10.794 5.467-12.917 3.979-13.727-5.683 4.019-9.368 10.794z" class="cls-6" transform="translate(-157.93 -543.092)"/>
                                        </g>
                                    </g>
                                </g>
                                <g id="Group_1375" transform="translate(39.794 29.115)">
                                    <g id="Group_1374">
                                        <path id="Path_1375" d="M115.488 592.909l-2.358-.938 1.706-2.73 1.727 1.261z" class="cls-6" transform="translate(-113.13 -589.241)"/>
                                    </g>
                                </g>
                                <g id="Group_1377" transform="translate(28.201 31.166)">
                                    <g id="Group_1376">
                                        <path id="Path_1376" d="M125.792 592.522l6.182 4.621.927-1.526z" class="cls-2" transform="translate(-125.792 -592.522)"/>
                                    </g>
                                </g>
                                <g id="Group_1379" transform="translate(39.794 29.115)">
                                    <g id="Group_1378">
                                        <path id="Path_1377" d="M117.268 589.241l-1.706 2.73.485.193 1.428-2.772z" class="cls-2" transform="translate(-115.562 -589.241)"/>
                                    </g>
                                </g>
                                <g id="Group_1381" transform="translate(5.338 9.405)">
                                    <g id="Group_1380">
                                        <path id="Path_1378" d="M169.8 558.377s-3.446-2.509-5.786 2.226 1.4 5.819 1.4 5.819a32.6 32.6 0 0 0 4.386-8.045z" class="cls-4" transform="translate(-163.249 -557.713)"/>
                                    </g>
                                </g>
                            </g>
                        </g>
                        <g id="Group_1394" transform="translate(19.614 32.936)">
                            <g id="Group_1384" transform="translate(5.082)">
                                <path id="Path_1379" d="M138.452 595.4a1.065 1.065 0 0 0-.732 1.282c.269 1.063.708 2.733 1.062 3.753a2.7 2.7 0 0 0 .468.926.872.872 0 0 0 1.59-.451 2.774 2.774 0 0 0-.091-1.091c-.22-.99-.623-2.48-.974-3.694a1.065 1.065 0 0 0-1.323-.725z" class="cls-1" transform="translate(-137.687 -595.353)"/>
                            </g>
                            <g id="Group_1385" transform="translate(3.39 1.727)">
                                <path id="Path_1380" d="M141.159 598.16a1.064 1.064 0 0 0-.732 1.282c.269 1.063.708 2.732 1.062 3.753a2.7 2.7 0 0 0 .468.926.872.872 0 0 0 1.59-.451 2.771 2.771 0 0 0-.091-1.09c-.22-.991-.623-2.48-.974-3.694a1.065 1.065 0 0 0-1.324-.725z" class="cls-1" transform="translate(-140.394 -598.116)"/>
                            </g>
                            <g id="Group_1386" transform="translate(1.858 2.769)">
                                <path id="Path_1381" d="M144.189 599.82a.921.921 0 0 0-.634 1.11c.233.92.613 2.366.919 3.25a2.336 2.336 0 0 0 .405.8.756.756 0 0 0 1.378-.391 2.422 2.422 0 0 0-.079-.945c-.191-.858-.54-2.147-.844-3.2a.921.921 0 0 0-1.145-.628z" class="cls-1" transform="translate(-143.526 -599.783)"/>
                            </g>
                            <g id="Group_1387" transform="translate(0 2.979)">
                                <path id="Path_1382" d="M147.143 600.156a.926.926 0 0 0-.637 1.115c.234.925.616 2.377.923 3.265a2.356 2.356 0 0 0 .408.805.759.759 0 0 0 1.384-.392 2.421 2.421 0 0 0-.079-.949c-.191-.862-.542-2.157-.848-3.214a.925.925 0 0 0-1.151-.631z" class="cls-1" transform="translate(-146.478 -600.118)"/>
                            </g>
                            <g id="Group_1389" transform="translate(5.187 2.121)">
                                <g id="Group_1388">
                                    <path id="Path_1383" d="M141.822 602.649a12.937 12.937 0 0 0-1.232-3.9 12.923 12.923 0 0 0 1.232 3.9z" class="cls-7" transform="translate(-140.57 -598.746)"/>
                                </g>
                            </g>
                            <g id="Group_1391" transform="translate(1.72 3.513)">
                                <g id="Group_1390">
                                    <path id="Path_1384" d="M147.406 604.9a25.208 25.208 0 0 0-1.169-3.93 8.808 8.808 0 0 0 1.169 3.93z" class="cls-7" transform="translate(-146.209 -600.973)"/>
                                </g>
                            </g>
                            <g id="Group_1393" transform="translate(3.464 3.285)">
                                <g id="Group_1392">
                                    <path id="Path_1385" d="M144.616 604.538a25.121 25.121 0 0 0-1.168-3.93 8.817 8.817 0 0 0 1.168 3.93z" class="cls-7" transform="translate(-143.419 -600.608)"/>
                                </g>
                            </g>
                        </g>
                    </g>
                </g>
            </g>
            <g id="Group_1442" transform="translate(64.797 12.018)">
                <g id="Group_1427" transform="translate(0 4.131)">
                    <g id="Group_1426">
                        <g id="Group_1409">
                            <g id="Group_1408">
                                <g id="Group_1407">
                                    <g id="Group_1406">
                                        <g id="Group_1405">
                                            <g id="Group_1404">
                                                <g id="Group_1403">
                                                    <g id="Group_1402">
                                                        <g id="Group_1401">
                                                            <g id="Group_1400">
                                                                <g id="Group_1399">
                                                                    <g id="Group_1398">
                                                                        <path id="Path_1386" d="M83.672 581.783l-4.245 24.133a7.945 7.945 0 0 1-8.945 6.426 7.858 7.858 0 0 1-6.753-9.03l.69-4.154s-5.939-1.61-5.319-7.573c.3-2.875 1.4-8.739 2.464-14.042a11.376 11.376 0 0 1 13.007-8.9 11.1 11.1 0 0 1 9.101 13.14z" class="cls-1" transform="translate(-59.056 -568.501)"/>
                                                                    </g>
                                                                </g>
                                                            </g>
                                                        </g>
                                                    </g>
                                                </g>
                                            </g>
                                        </g>
                                    </g>
                                </g>
                            </g>
                        </g>
                        <g id="Group_1425" transform="translate(5.161 29.357)">
                            <g id="Group_1424">
                                <g id="Group_1423">
                                    <g id="Group_1422">
                                        <g id="Group_1421">
                                            <g id="Group_1420">
                                                <g id="Group_1419">
                                                    <g id="Group_1418">
                                                        <g id="Group_1417">
                                                            <g id="Group_1416">
                                                                <g id="Group_1415">
                                                                    <g id="Group_1414">
                                                                        <g id="Group_1413">
                                                                            <g id="Group_1412">
                                                                                <g id="Group_1411">
                                                                                    <g id="Group_1410">
                                                                                        <path id="Path_1387" d="M77.407 616.773a14.345 14.345 0 0 0 8.138-1.315s-2.363 4.075-8.332 2.856z" class="cls-7" transform="translate(-77.213 -615.458)"/>
                                                                                    </g>
                                                                                </g>
                                                                            </g>
                                                                        </g>
                                                                    </g>
                                                                </g>
                                                            </g>
                                                        </g>
                                                    </g>
                                                </g>
                                            </g>
                                        </g>
                                    </g>
                                </g>
                            </g>
                        </g>
                    </g>
                </g>
                <g id="Group_1428" transform="translate(1.49)">
                    <path id="Path_1388" fill="#263238" d="M57.271 564.934c.8-.606 2.518-1.755 3.275-2.329s7.377-1.351 11.291.563 2.956 1.86 4.171 2.83H76a19.815 19.815 0 0 1 3.812 4.078l.047.042a6.639 6.639 0 0 1 1.493 4.329c-.492 4.289-1.914 6.773-2.714 10.837a1.446 1.446 0 0 1-.306.754c-.5.515-1.384.079-1.851-.461a7.671 7.671 0 0 1-1.588-4.83c-.055-1.725.189-3.448.151-5.173v-.122a8.942 8.942 0 0 0-.126-1.318 4.334 4.334 0 0 0-3.175-3.146c-2.513-.428-7.471 2.012-9.928 1.624s-2.583-2.122-2.583-2.122l-1.445 2.938a8.839 8.839 0 0 1-.232-3.67 4.153 4.153 0 0 1-1.219-2.144 2.754 2.754 0 0 1 .935-2.68z" transform="translate(-56.284 -561.952)"/>
                </g>
                <g id="Group_1441" transform="translate(21.338 19.911)">
                    <g id="Group_1440">
                        <g id="Group_1439">
                            <g id="Group_1438">
                                <g id="Group_1437">
                                    <g id="Group_1436">
                                        <g id="Group_1435">
                                            <g id="Group_1434">
                                                <g id="Group_1433">
                                                    <g id="Group_1432">
                                                        <g id="Group_1431">
                                                            <g id="Group_1430">
                                                                <g id="Group_1429">
                                                                    <path id="Path_1389" d="M58.119 593.808c.108-.032 4.295-.74 3.688 3.315s-4.615 2.619-4.605 2.5.917-5.815.917-5.815z" class="cls-1" transform="translate(-57.202 -593.741)"/>
                                                                </g>
                                                            </g>
                                                        </g>
                                                    </g>
                                                </g>
                                            </g>
                                        </g>
                                    </g>
                                </g>
                            </g>
                        </g>
                    </g>
                </g>
            </g>
            <path id="Path_1390" fill="#0e3655" d="M163.734 702.3s-12.621-2.462-18.56-6.213-17.214-7.047-22.663-5.314c-5.158 1.641-7.96 3.986-7.651 11.554a13.487 13.487 0 0 0 4.115 9.349 11.253 11.253 0 0 0 1.273 1.035 38.588 38.588 0 0 0 5.206 2.775l-12.436 2.285-11.042-25.96s-4.107-9.5-2.38-15.6a6.745 6.745 0 0 1 3.976-4.314c3.518-1.459 10.065-3.621 28.512 7.863 11.409 6.252 21.394 12.617 21.394 12.617z" transform="translate(-99.172 -590.663)"/>
            <path id="Path_1403" fill="#0d314d" d="M61.685 108.78S36.5 96.045 30.289 97.038s-9.315 3.573-10.376 4.478 5.811-3.075 10.376-1.407 12.629 2.873 17.059 5.387a88.43 88.43 0 0 0 15.946 6.121c1.186.123-1.609-2.837-1.609-2.837z"/>
        </g>
        <path id="Line_1484" d="M1.787 3.575L0 0" class="cls-11" transform="translate(1193.476 1099.5)"/>
        <path id="Path_1391" d="M13.487 1H9.173" class="cls-11" transform="translate(1175.52 1114.587)"/>
        <path id="Line_1485" d="M4.469 1.787L0 0" class="cls-11" transform="translate(1187.22 1106.65)"/>
    </g>
</svg>
