<svg xmlns="http://www.w3.org/2000/svg" width="283.049" height="356.357" viewBox="0 0 283.049 356.357">
    <defs>
        <style>
            .cls-3{fill:#d92f2f}.cls-6{fill:#07afc1}
        </style>
    </defs>
    <g id="pic-contactus-1" transform="translate(-132.233 -1516.791)">
        <g id="Group_1446" data-name="Group 1446" transform="rotate(141 -123.522 857.862)">
            <path id="Path_1396" fill="none" stroke="#0d395a" stroke-dasharray="11 11" stroke-miterlimit="10" stroke-width="3px" d="M49.939 95.584S14.122 30.618 71.746 5.465 202.138-47.089 151.121-156.8" data-name="Path 1396" transform="rotate(-14.98 63.003 8.27)"/>
            <g id="Group_1445" data-name="Group 1445" transform="rotate(31 -86.424 139.202)">
                <path id="Path_1392" fill="#e84040" d="M87.917 71.4L59.835 0 0 33.772z" data-name="Path 1392" transform="translate(0 2.114)"/>
                <path id="Path_1393" d="M70.215 56.1L15.027 0 0 8.482z" class="cls-3" data-name="Path 1393" transform="translate(17.702 17.413)"/>
                <path id="Path_1394" d="M0 25.894L10.466 0l4.562 17.413z" class="cls-3" data-name="Path 1394" transform="translate(17.702)"/>
                <path id="Path_1395" fill="#e03b3b" d="M0 0l12.915 12.7-8.353 4.713z" data-name="Path 1395" transform="translate(28.167)"/>
            </g>
        </g>
        <g id="Group_1449" data-name="Group 1449" transform="rotate(8 -12884.186 2141.492)">
            <path id="Path_1392-2" fill="#00c1d5" d="M62.727 0L42.691 50.941 0 26.846z" data-name="Path 1392"/>
            <path id="Path_1393-2" d="M50.1 0L10.722 40.026 0 33.974z" class="cls-6" data-name="Path 1393" transform="translate(12.63)"/>
            <path id="Path_1394-2" d="M0 0l7.467 18.475 3.255-12.423z" class="cls-6" data-name="Path 1394" transform="translate(12.63 33.974)"/>
            <path id="Path_1395-2" d="M0 12.424l9.214-9.06L3.255 0z" class="cls-6" data-name="Path 1395" transform="translate(20.097 40.026)"/>
        </g>
    </g>
</svg>
