<svg xmlns="http://www.w3.org/2000/svg" width="70.874" height="212.681" viewBox="0 0 70.874 212.681">
    <defs>
        <style>
            .cls-2{fill:#0f264c}.cls-3{fill:#eea886}.cls-4{fill:#0d395a}.cls-5{fill:#e84040}.cls-6{fill:#f2a181}
        </style>
    </defs>
    <g id="pic-news-1" transform="translate(-8.687 .999)">
        <ellipse id="Ellipse_217" cx="35.364" cy="3.364" fill="#d8f3f7" rx="35.364" ry="3.364" transform="translate(8.833 204.953)"/>
        <g id="Group_1385" transform="translate(8.687 -.999)">
            <g id="Group_1384">
                <g id="Group_1379" transform="translate(13.685)">
                    <path id="Path_1352" d="M415.682 286.433s9.484.281 4.46 11.468-4.46-11.468-4.46-11.468z" class="cls-2" transform="translate(-396.956 -284.491)"/>
                    <path id="Path_1353" d="M433.376 289.734s2.552 1.619 2.515 10.376c0 .3 1.036 2.889 1.131 3.195.358 1.173-.356 1.249-1.325 1.746-.392 6.6-1.351 6.484-2.19 7.065-.959.665-8.3-.9-13.01-3.317s-6.315-9.63-4.323-14.055 11.692-8.825 17.202-5.01z" class="cls-3" transform="translate(-412.011 -283.719)"/>
                    <path id="Path_1354" d="M417.454 297.267c-.755 4.151 1.208 10.492 9.074 13.238 0 0 .7-2.506 1.2-4.96s7.17-5.267 10.063-7.947c.145-.135.28-.269.406-.407a6.365 6.365 0 0 0 .067-8.155c-1.62-2.066-5.2-5.484-11.616-3.232-5.723 2.007-8.26 6.335-9.194 11.463z" class="cls-2" transform="translate(-417.305 -285.063)"/>
                    <path id="Path_1355" d="M429.268 300.431c-1.235 1.387-1.471 4.19-1.367 6.869.027.455.055.91.084 1.353a43.645 43.645 0 0 0 .707 5.036l-9.072-.233a59.341 59.341 0 0 0-.223-9.037s12.794-7.271 9.871-3.988z" class="cls-3" transform="translate(-410.165 -278.994)"/>
                </g>
                <g id="Group_1380" transform="translate(.137 78.452)">
                    <path id="Path_1357" d="M444.9 356.2l-14.182-15.817s-8.588 9.4-7 19.716c.783 5.075 2.207 7.723 2.674 10.142.437 2.26 1.552 33.62.931 35.824s-3.926 8.171-5.685 14.663c-2.118 7.808-4.371 19.8-6.1 26.558s1.113 15.779 1.726 13.5c5.241-19.512 19.07-42.638 21.315-52.441s3.978-28.055 6.321-52.145z" class="cls-3" transform="translate(-405.789 -340.386)"/>
                    <path id="Path_1359" d="M442.576 415.731s-4.346 12.766-4 14.387c.212.991 1.179 4.327 1.4 4.8.088.189 3.2 2.75 1.132 2.7-2.042-.054-6.886-6.716-7.606-7.22a3.215 3.215 0 0 1-1.428-3.281c.425-1.963 1.7-3.463 2.64-4.834s2.279-8.028 2.279-8.028z" class="cls-3" transform="translate(-426.781 -309.503)"/>
                    <path id="Path_1360" d="M447.9 435.37a12.519 12.519 0 0 0-3.351-2.765c-.385-.5-.695-.828-.539-.5.267.542-1.114.818-1.794.241-2.375-1.971-3.055-4.912-4.226-6.308-1.671-1.984-.5-4.6-.322-5.04a10.861 10.861 0 0 0-3.417 1.584 6.558 6.558 0 0 0-1.811 2.09 28.713 28.713 0 0 1-1.626 3.84l2.252 1.855 2.182-2.046.6.658a5.426 5.426 0 0 1 1.159 2.456 13.381 13.381 0 0 0 .569 1.822 5.6 5.6 0 0 0 1.66 2.387l.958.813a3.928 3.928 0 0 0 2.543.94h3.868v-.006h.593a1.04 1.04 0 0 0 1.038-1.163 2.252 2.252 0 0 0-.336-.858z" class="cls-4" transform="translate(-430.814 -306.685)"/>
                </g>
                <g id="Group_1381" transform="translate(22.522 76.714)">
                    <path id="Path_1361" d="M434.462 467.621c-.308-.423-3.931-1.384-5.591-2.29a10.215 10.215 0 0 1-3.677-4.338c-.3-1.005.214-5.908.443-7.965 1.58-14.171 6.517-34.681 7.608-42.958 1.9-14.388 1.38-29.468-1.972-53.161l-18.624-17.749s-6.541 10.253-5.562 20.731c.569 6.079 5.281 7.445 5.888 9.844s9.451 40.984 9.451 40.984a72.738 72.738 0 0 0-3.968 16.736c-.776 7.563 1.176 16.756 1.035 25.516-.077 1.709-.148 5.806-.744 7.056-.732 1.533-2.407 3.257-2.506 5.268a3.093 3.093 0 0 0 2.035 2.937c1.379.586 2.242-.187 2.732-.163 2.83.142 3.438 2.221 8.306 2.673a7.557 7.557 0 0 0 5.015-1.628 1.1 1.1 0 0 0 .131-1.493z" class="cls-3" transform="translate(-406.987 -339.16)"/>
                    <path id="Path_1362" d="M425.916 433.429a3.708 3.708 0 0 1-1.007 1.154 5.023 5.023 0 0 1-3.133 1.014h-2.382a5.355 5.355 0 0 1-2.754-.763 13.289 13.289 0 0 1-1.548-1.035 5.038 5.038 0 0 0-2.407-1.142 6.747 6.747 0 0 0-1.538-.035l-.167 2.975h-3.288a17.354 17.354 0 0 0-.836-4.256 5.932 5.932 0 0 1 .233-2.605 12.15 12.15 0 0 1 2.119-3.449c.133.461.824 3.252 3.343 3.69 1.75.312 4.08 2.146 7.123 2.112.88 0 1.783-1.119 1.249-1.361s.969.034 1.928.391a27.5 27.5 0 0 1 3.1 1.581c.333.2.288 1.107-.035 1.729z" class="cls-4" transform="translate(-398.179 -303.15)"/>
                </g>
                <path id="Path_1363" d="M442.147 396.785s-3.157 1.632-14.666 2.069c-1.033.057-2.123.085-3.292.1-.748.013-1.456.013-2.123.013-6.245-.013-9.183-.6-9.142-1.224.027-.676-3.183-25.547-4.245-29.319a32.551 32.551 0 0 1-1.931-12.725c.367-6.813 5.6-14.935 7.034-16.413l24.23-.408s4.176 10.219 4.583 16.539c.844 13.315-.448 41.368-.448 41.368z" class="cls-5" transform="translate(-392.261 -262.564)"/>
                <path id="Path_1364" d="M416.162 326.831s.959 5.077 1.558 7.168 3.568 15.374 6.379 15.142 18.21-13.533 18.21-13.533l-2.181-4.512-13.556 6.686s-1.224-15.184-2.3-18.8z" class="cls-3" transform="translate(-404.654 -270.881)"/>
                <path id="Path_1365" d="M421.558 325.667c1.434 5.247 4.2 13.331 5.255 14.847.474.679 9.563-2.714 9.584-6.362l-9.422-11.052z" class="cls-6" transform="translate(-406.137 -269.159)"/>
                <path id="Path_1366" d="M439.07 308.31s-4.955-.391-8.509 2.344c-5.873 4.518-4.594 21.278-4.594 21.278s-.287.892 3.614.665a27.24 27.24 0 0 0 7.03-1.374l-1.127-13.683z" class="cls-5" transform="translate(-414.692 -275.353)"/>
                <path id="Path_1367" fill="#2c2c60" d="M430.112 314.988s-.493 9.816 1.225 14.771a14.95 14.95 0 0 0 3.183-.433z" transform="translate(-415.894 -272.552)"/>
                <path id="Path_1368" d="M416.843 309.882c.16-1.113.451-2.409 1.452-2.847a3.02 3.02 0 0 1 .883-.194 28.052 28.052 0 0 1 5.787-.455 8.336 8.336 0 0 1 3.734.678c1.787.925 2.77 2.918 3.634 4.783z" class="cls-5" transform="translate(-395.609 -276.153)"/>
                <path id="Path_1369" d="M442.157 347.93c-.851-1.73-1.6-9.015-1.3-10.877.314-2 2.02-3.069 2.791-7.509a16.867 16.867 0 0 0-2.543-12.072c-1.791-2.692-4.252-8.158-4.76-8.319-7.485-2.357-8.7-1.231-13.737-1a40.337 40.337 0 0 0-6.531.78c-3.114.6-5.9 3.72-6.456 7.519-.861 5.875-.192 9.649 1.534 15.222 1.144 3.694 7.977 16.474 6.284 18.947a8.477 8.477 0 0 0-1.472 2.344c-.429 2.582 3.6 3.218 7.626 3.7a61.828 61.828 0 0 0 11.585-.075c11.367-.801 7.334-7.938 6.979-8.66z" class="cls-5" transform="translate(-396.753 -275.607)"/>
                <g id="Group_1383" transform="translate(42.546 40.585)">
                    <path id="Path_1371" d="M395.66 324.3s9.2 23 13.188 23c2.9 0 10.022-21.23 10.022-21.23l-4.5-2.2-5.015 8.891-6.132-15.629z" class="cls-3" transform="translate(-395.66 -312.242)"/>
                    <path id="Path_1372" d="M392.147 326.892s1.491-2.429 1.382-4.152c-.041-.657-.418-3.783-.1-4.4a18.573 18.573 0 0 1 1.5-3.018c.433-.391 2.03-1.02 2.421-.742s.877-1.005 1.526-.893a1.4 1.4 0 0 1 1.188 1.285c0 .615.865.727.972 1.174a6.489 6.489 0 0 0 .217 1.173c.162.336.64.17.81 1.007.156.764-.053.838 0 1.229s.378.355.27 1.1a9.51 9.51 0 0 1-1.033 2.55 7.244 7.244 0 0 1-2.508 2.628 4.956 4.956 0 0 0-1.462 2.09z" class="cls-3" transform="translate(-374.327 -313.683)"/>
                    <g id="Group_1382" transform="translate(20.661 1.252)">
                        <path id="Path_1373" d="M397.945 314.657a6.413 6.413 0 0 1-1.657 1.788c-.424.413-.371.678-.837 1.1.818-.064.677-.563 1.738-1.354a2.3 2.3 0 0 0 1.1-1.387.186.186 0 0 0-.339-.148z" class="cls-6" transform="translate(-395.451 -314.566)"/>
                    </g>
                </g>
                <path id="Path_1374" d="M404.514 307.7c2.4.129 9.921.759 14.647 7.937a63.354 63.354 0 0 1 6.125 13.027c-1.613 2.346-6.767 4.579-10.483 4.531a40.748 40.748 0 0 1-3.887-11.131z" class="cls-5" transform="translate(-371.665 -275.599)"/>
                <path id="Path_1376" d="M425.493 296.6a2.248 2.248 0 0 0-2.962-1.007c-1.885.949-.84 4.59.651 4.966a1.615 1.615 0 0 0 1.783-.685z" class="cls-3" transform="translate(-395.174 -280.771)"/>
                <path id="Path_1377" d="M392.861 315.654s1.521-2.606 1.646-3.062.071-1.1.323-1.977.722-1.01.975-.749a11.1 11.1 0 0 1 .181 3.181 4.58 4.58 0 0 1-.248.94s.134 1.635.269 2.48a5.617 5.617 0 0 1-.269 2.083l-1.044.488-.629-2.18.078-.135-.77.135z" class="cls-3" transform="translate(-326.444 -274.743)"/>
                <path id="Path_1378" fill="none" stroke="#f2a181" stroke-miterlimit="10" stroke-width="0.165px" d="M394.631 312.51a40.426 40.426 0 0 1-1.631 4.154" transform="translate(-325.233 -273.588)"/>
                <path id="Path_1379" d="M450.252 301.174s-1.634 5.213.378 19.238c0 0-19.262-3.6-25.868-4.524 0 0 10.034-16.907 14.926-24.918" class="cls-2" transform="translate(-424.762 -282.594)"/>
            </g>
        </g>
    </g>
</svg>
