<svg xmlns="http://www.w3.org/2000/svg" width="696.643" height="350.604" viewBox="0 0 696.643 350.604">
    <defs>
        <style>
            .cls-16,.cls-17,.cls-3{fill:none;stroke-miterlimit:10}.cls-16,.cls-17{stroke:#fff}.cls-3{stroke:#0d395a;stroke-width:2.654px;stroke-dasharray:11.211 11.211}.cls-4{fill:#0f264c}.cls-5{fill:#eea886}.cls-7{fill:#c6f4f3}.cls-8{fill:#195d8f}.cls-9{fill:#0d395a}.cls-10{fill:#00c1d5}.cls-11{fill:#d8f3f7}.cls-12{fill:#e84040}.cls-14{fill:#fff}.cls-16{stroke-width:.323px}.cls-17{stroke-width:1.134px}
        </style>
    </defs>
    <g id="pic-contact" transform="translate(-515.604 -1913.597)">
        <g id="Group_1073" fill="none" stroke-miterlimit="10">
            <path id="Line_1191" stroke="#d8f3f7" stroke-width="55.772px" d="M341 0L0 0" transform="translate(596.428 2236.001)"/>
            <path id="Line_1192" stroke="#fff" stroke-dasharray="20 20" stroke-width="3px" d="M341 0L0 0" transform="translate(596.428 2236.001)"/>
        </g>
        <path id="Path_1099" d="M1016.107 1936.669s88.561 83.123 53.948 113.886-60.961-6.915-49.306-37.548c8.877-23.331 73.086-33.56 106.869 22.162 26.458 43.64 14.034 65.043 9.84 80.031" class="cls-3"/>
        <g id="Group_1074">
            <path id="Path_1100" d="M870.205 2142.545c-5.4-11.7-30.551-55.954-13.172-68.7 3.118-9.193 32.867-23.716 44.992-9.589 15.918 18.544 30.975 74.81 30.975 74.81l-62.795 3.479" class="cls-4"/>
            <path id="Path_1101" d="M862.392 2090.352c2.5 16.031 3.222 22.87 12.143 30.382 13.42 11.3 32.563 4.716 34.9-11.741 2.1-14.812-2.346-38.541-18.732-43.475a22.13 22.13 0 0 0-28.311 24.834z" class="cls-5"/>
            <path id="Path_1102" d="M862.345 2101.158c11.808-.893 29.742-24.337 32.652-34.979-4.584-12.211-30.146 5.236-30.146 5.236s-16.865 2.329-2.506 29.743z" class="cls-4"/>
        </g>
        <path id="Path_1103" fill="#ff8b7b" d="M913.625 2181.371l1.2.619 1.411.775c.952.517 1.923 1.089 2.879 1.66 1.911 1.175 3.821 2.4 5.657 3.738a107.079 107.079 0 0 1 10.691 8.526 124.422 124.422 0 0 1 9.485 9.891c1.416 1.789 2.9 3.539 4.236 5.4l1.995 2.8.472.661s.059.052.029-.008a3.861 3.861 0 0 1-.142-.909 3.938 3.938 0 0 1 .381-1.931 2.244 2.244 0 0 1 .683-.952c.222-.136-.147.248-.762.565a24.9 24.9 0 0 1-5.4 1.878 111.027 111.027 0 0 1-13.747 2.3c-4.776.57-9.642.963-14.531 1.24-4.878.37-9.843.556-14.7.791l-.562 8.856c5.09.807 10.084 1.286 15.167 1.746 5.071.357 10.169.6 15.341.639a104.055 104.055 0 0 0 15.926-1.033 39.743 39.743 0 0 0 8.9-2.372 17.981 17.981 0 0 0 5.481-3.467 12.947 12.947 0 0 0 2.812-4 12.123 12.123 0 0 0 .947-5.587 13.7 13.7 0 0 0-1.149-4.487 18.544 18.544 0 0 0-.843-1.657l-.545-.906-2.1-3.448c-1.408-2.3-2.995-4.478-4.573-6.663a110.159 110.159 0 0 0-10.651-12.157 116.191 116.191 0 0 0-12.371-10.44c-2.191-1.588-4.481-3.055-6.817-4.48-1.184-.7-2.356-1.4-3.6-2.053l-1.9-.965c-.677-.334-1.227-.6-2.161-1.008z"/>
        <path id="Path_1104" d="M949.774 2179.442l-16.487 20.569 6.087 6.59 17.408-18.987z" class="cls-7"/>
        <path id="Path_1105" d="M923.9 2150.144c17.179 5.521 28.005 30.43 28.005 30.43l-21.462 27.213s-22.69-31.547-21.639-41.181c1.096-10.033 4.738-19.789 15.096-16.462z" class="cls-8"/>
        <path id="Path_1106" d="M930 2153s7.865 1.107-9.293 103.852l-71.166-.3c1.317-28.959 1.427-46.818-12.164-106.318a209.935 209.935 0 0 1 30.237-3.853c20.728-.911 31.064.019 32.315.138C913.8 2147.843 930 2153 930 2153z" class="cls-8"/>
        <path id="Path_1107" d="M870.97 2110.006c2 10.406 3.948 29.466-3.356 36.373 0 0 2.8 10.559 22.118 10.641 21.244.09 10.2-10.5 10.2-10.5-11.583-2.818-11.247-11.419-9.193-19.49z" class="cls-5"/>
        <g id="Group_1075">
            <path id="Path_1108" d="M919.086 2149.174c-5.55-.956-12.569-2.025-19.159-2.662-10.531-1.012-20.35-.659-32.32-.137-6.129.261-12.187.916-17.243 1.647-.021 1.481 2.454 4.522 7.317 8.257 13.363 5.429 39.532 9.652 56.024 3.945 6.319-4.983 7.216-8.424 5.381-11.05z" class="cls-5"/>
            <path id="Path_1109" d="M857.681 2156.279c6.666 5.119 17.845 11.547 33.473 17.116 10.921-5.356 18.081-9.647 22.551-13.171-16.492 5.707-42.661 1.484-56.024-3.945z" class="cls-5"/>
        </g>
        <path id="Path_1110" d="M861.4 2108.59a12.709 12.709 0 0 0 6.153 7.508c3.944 2.075 6.849-1.227 6.534-5.438-.283-3.79-2.676-9.437-7.011-9.771-4.266-.33-6.831 3.745-5.676 7.701z" class="cls-5"/>
        <path id="Path_1111" d="M846.226 2175.623c-2.019 5.2-4.208 9.71-6.565 14.416-2.332 4.653-4.932 9.16-7.674 13.6a156.472 156.472 0 0 1-18.953 25.188c-.87 1-1.87 1.91-2.8 2.863-.995.965-1.795 1.837-2.951 2.873a29.572 29.572 0 0 1-8.454 5.5 24.96 24.96 0 0 1-10.443 1.992 27.752 27.752 0 0 1-9.741-2.187c-5.851-2.456-10.262-6.209-14.139-10.071a57.876 57.876 0 0 1-5.289-6.168 61.442 61.442 0 0 1-4.518-6.76l7.276-5.082A81.209 81.209 0 0 0 772.28 2221a34.152 34.152 0 0 0 11.082 5.786c3.635.955 6.471.626 8.967-.8a16.19 16.19 0 0 0 3.757-3.044c1.418-1.564 3.086-3.379 4.544-5.14a173.65 173.65 0 0 0 16.111-23.307c2.442-4.1 4.61-8.378 6.819-12.621 2.148-4.206 4.243-8.736 5.987-12.784z" class="cls-5"/>
        <path id="Path_1112" d="M818.562 2184.682l18.96 16.841 4.23-7.625-18.034-17.156z" class="cls-7"/>
        <path id="Path_1113" d="M837.377 2150.232c-7.139 2.138-17.92 28.031-17.92 28.031l23.323 21.372s13.763-22.947 10.806-32.176c-3.079-9.61-8.062-19.667-16.209-17.227z" class="cls-8"/>
        <g id="Group_1078">
            <g id="Group_1077">
                <path id="Path_1114" d="M860.849 2260.432h129.44c3.61 0 4.723-2.925 4.723-6.537H854.31a6.537 6.537 0 0 0 6.539 6.537z" class="cls-9"/>
                <path id="Path_1115" d="M853.342 2253.9h45.882c0 3.612-3.324 6.537-7.425 6.537h-38.652c-4.23-.066-4.035-6.537.195-6.537z" class="cls-9"/>
                <g id="Group_1076">
                    <path id="Path_1116" d="M902.087 2255.8h92.925a5.746 5.746 0 0 0 5.643-4.674l12.525-53.744a5.746 5.746 0 0 0-5.645-6.819h-92.922a5.746 5.746 0 0 0-5.647 4.675l-12.523 53.742a5.747 5.747 0 0 0 5.644 6.82z" class="cls-9"/>
                </g>
            </g>
        </g>
        <g id="Group_1080">
            <path id="Path_1117" d="M762.119 2212.145s-2.848-4.977-2.049-7.555a23.224 23.224 0 0 0 .5-7.628c-.161-1.614 1.125-6.843-.838-6.554s-2.513 8.533-2.959 10.255-4.766-4.527-6.447-4.98-11.548 8.1-8.09 12.013 9.733 5.576 10.2 6.4a30.915 30.915 0 0 0 2.4 2.951z" class="cls-5"/>
            <g id="Group_1079">
                <path id="Path_1118" d="M751.344 2196.385s-11.38-11.19-12.768-11.243-1.961.655-.942 1.751 10.681 11.159 10.681 11.159-15.713-10.775-16.829-11.077c-.652-.177-1.839 1.129-1.348 1.771s15.436 12.279 15.436 12.279-14.689-10.03-15.708-9.991a1.334 1.334 0 0 0-.669 2.333c1.037.826 14.129 10.964 14.129 10.964s-11.163-6.577-12.03-6.012c-.531.344-1.605 1.428 1.331 3.028s9.447 6.157 9.447 6.157z" class="cls-5"/>
            </g>
        </g>
        <g id="Group_1082">
            <path id="Path_1119" d="M1040.362 2173.139s2.489 11.112-10.3 24.788c0 0 26.536-7.692 34.229-24.788z" class="cls-8"/>
            <g id="Group_1081">
                <rect id="Rectangle_1547" width="79.848" height="47.16" class="cls-8" rx="3.215" transform="translate(1009.615 2132.863)"/>
            </g>
        </g>
        <g id="Group_1084">
            <path id="Path_1120" d="M1145.91 2127.277s3.363 15.013-13.908 33.49c0 0 35.85-10.393 46.243-33.49z" class="cls-10"/>
            <g id="Group_1083">
                <rect id="Rectangle_1548" width="107.878" height="78.824" class="cls-10" rx="4.831" transform="translate(1104.37 2057.754)"/>
            </g>
        </g>
        <path id="Path_1121" d="M759.705 2030.374s-78.009 26.519-137.357-12.928 5.488-92.7 40.57-63.072S662.909 2062 700.955 2095 772 2137 805 2129" class="cls-3"/>
        <path id="Path_1122" d="M834.536 2053.222H751.7v-48.288l40.587-34.134 42.252 34.134z" class="cls-8"/>
        <path id="Path_1123" d="M764.713 1976.211h56.809v39.39l-27.833 23.316-28.975-23.472z" class="cls-11"/>
        <path id="Rectangle_1549" d="M0 0H16.781V3.245H0z" class="cls-12" transform="translate(771.149 1984.31)"/>
        <path id="Rectangle_1550" d="M0 0H42.551V3.245H0z" class="cls-10" transform="translate(771.449 1992.152)"/>
        <path id="Rectangle_1551" d="M0 0H42.551V3.245H0z" class="cls-12" transform="translate(771.449 1999.183)"/>
        <path id="Rectangle_1552" d="M0 0H42.551V3.245H0z" class="cls-12" transform="translate(771.449 2006.755)"/>
        <path id="Rectangle_1553" d="M0 0H42.551V3.245H0z" class="cls-10" transform="translate(771.449 2014.868)"/>
        <path id="Rectangle_1554" d="M0 0H42.551V3.245H0z" class="cls-8" transform="translate(771.449 2021.9)"/>
        <path id="Path_1124" d="M751.7 2004.934l37.491 30.219-37.491 18.277z" class="cls-10"/>
        <path id="Path_1125" d="M834.354 2004.934l-36.267 30.18 36.267 18.316z" class="cls-10"/>
        <g id="Group_1086">
            <path id="Path_1126" fill="none" stroke="#fff" stroke-linecap="round" stroke-linejoin="round" stroke-width="3px" d="M1063.641 2156.1a14.109 14.109 0 1 1-7.345-12.39"/>
            <g id="Group_1085">
                <path id="Path_1127" d="M1050.35 2162.442a1.767 1.767 0 0 1-1.235-.549l-6.491-6.827a1.766 1.766 0 1 1 2.559-2.434l5.15 5.416 11.356-13.135a1.766 1.766 0 0 1 2.672 2.31l-12.63 14.608a1.767 1.767 0 0 1-1.294.611z" class="cls-14"/>
            </g>
        </g>
        <g id="Group_1103">
            <path id="Path_1128" fill="#195d8f" fill-rule="evenodd" d="M1181.668 2075.546v46.372h-47.785v-46.233z"/>
            <path id="Rectangle_1555" d="M0 0H33.731V22.357H0z" class="cls-14" transform="translate(1140.911 2097.551)"/>
            <g id="Group_1087">
                <path id="Rectangle_1556" d="M0 0H3.337V3.337H0z" class="cls-14" transform="translate(1147.84 2089.21)"/>
                <path id="Rectangle_1557" d="M0 0H3.337V3.337H0z" class="cls-14" transform="translate(1156.108 2089.21)"/>
                <path id="Rectangle_1558" d="M0 0H3.337V3.337H0z" class="cls-14" transform="translate(1164.375 2089.21)"/>
            </g>
            <g id="Group_1088">
                <path id="Rectangle_1559" d="M0 0H6.743V5.057H0z" class="cls-8" transform="translate(1140.915 2114.933)"/>
                <path id="Path_1129" d="M1145.223 2114.933v1.124h-1.967v-1.124" class="cls-16"/>
            </g>
            <g id="Group_1089">
                <path id="Rectangle_1560" d="M0 0H6.743V5.057H0z" class="cls-8" transform="translate(1140.915 2104.819)"/>
                <path id="Path_1130" d="M1145.223 2104.819v1.124h-1.967v-1.124" class="cls-16"/>
            </g>
            <g id="Group_1090">
                <path id="Rectangle_1561" d="M0 0H6.743V5.057H0z" class="cls-8" transform="translate(1140.915 2109.876)"/>
                <path id="Path_1131" d="M1145.223 2109.876V2111h-1.967v-1.124" class="cls-16"/>
            </g>
            <g id="Group_1091">
                <path id="Rectangle_1562" d="M0 0H6.743V5.057H0z" class="cls-12" transform="translate(1147.658 2109.879)"/>
                <path id="Path_1132" d="M1151.966 2109.879V2111H1150v-1.124" class="cls-16"/>
            </g>
            <g id="Group_1092">
                <path id="Rectangle_1563" d="M0 0H6.743V5.057H0z" class="cls-12" transform="translate(1147.658 2114.936)"/>
                <path id="Path_1133" d="M1151.966 2114.936v1.124H1150v-1.124" class="cls-16"/>
            </g>
            <g id="Group_1093">
                <path id="Rectangle_1564" d="M0 0H6.743V5.057H0z" class="cls-8" transform="translate(1154.401 2114.936)"/>
                <path id="Path_1134" d="M1158.709 2114.936v1.124h-1.967v-1.124" class="cls-16"/>
            </g>
            <g id="Group_1094">
                <path id="Rectangle_1565" d="M0 0H6.743V5.057H0z" class="cls-12" transform="translate(1154.398 2104.809)"/>
                <path id="Path_1135" d="M1158.706 2104.809v1.124h-1.967v-1.124" class="cls-16"/>
            </g>
            <g id="Group_1095">
                <path id="Rectangle_1566" d="M0 0H6.743V5.057H0z" class="cls-12" transform="translate(1154.412 2099.766)"/>
                <path id="Path_1136" d="M1158.72 2099.766v1.124h-1.967v-1.124" class="cls-16"/>
            </g>
            <g id="Group_1096">
                <path id="Rectangle_1567" d="M0 0H6.743V5.057H0z" class="cls-12" transform="translate(1154.401 2109.879)"/>
                <path id="Path_1137" d="M1158.709 2109.879V2111h-1.967v-1.124" class="cls-16"/>
            </g>
            <path id="Line_1193" d="M0 0L6.743 0" class="cls-16" transform="translate(1140.915 2109.923)"/>
            <path id="Line_1194" d="M0 0L6.743 0" class="cls-16" transform="translate(1154.397 2109.923)"/>
            <path id="Line_1195" d="M0 0L6.743 0" class="cls-16" transform="translate(1154.41 2104.72)"/>
            <path id="Line_1196" d="M0 0L6.743 0" class="cls-16" transform="translate(1140.915 2114.98)"/>
            <path id="Line_1197" d="M0 0L0 10.156" class="cls-16" transform="translate(1154.448 2109.85)"/>
            <path id="Line_1198" d="M0 0L0 10.188" class="cls-16" transform="translate(1147.705 2109.82)"/>
            <path id="Line_1199" d="M0 0L13.462 0" class="cls-16" transform="translate(1147.682 2114.913)"/>
            <g id="Group_1097">
                <path id="Rectangle_1568" d="M0 0H6.743V5.057H0z" class="cls-10" transform="translate(1161.153 2109.879)"/>
                <path id="Path_1138" d="M1165.461 2109.879V2111h-1.967v-1.124" class="cls-16"/>
            </g>
            <g id="Group_1098">
                <path id="Rectangle_1569" d="M0 0H6.743V5.057H0z" class="cls-8" transform="translate(1161.153 2114.936)"/>
                <path id="Path_1139" d="M1165.461 2114.936v1.124h-1.967v-1.124" class="cls-16"/>
            </g>
            <g id="Group_1099">
                <path id="Rectangle_1570" d="M0 0H6.743V5.057H0z" class="cls-8" transform="translate(1167.896 2114.936)"/>
                <path id="Path_1140" d="M1172.2 2114.936v1.124h-1.967v-1.124" class="cls-16"/>
            </g>
            <g id="Group_1100">
                <path id="Rectangle_1571" d="M0 0H6.743V5.057H0z" class="cls-8" transform="translate(1167.893 2104.809)"/>
                <path id="Path_1141" d="M1172.2 2104.809v1.124h-1.967v-1.124" class="cls-16"/>
            </g>
            <g id="Group_1101">
                <path id="Rectangle_1572" d="M0 0H6.743V5.057H0z" class="cls-12" transform="translate(1167.907 2099.766)"/>
                <path id="Path_1142" d="M1172.214 2099.766v1.124h-1.967v-1.124" class="cls-16"/>
            </g>
            <g id="Group_1102">
                <path id="Rectangle_1573" d="M0 0H6.743V5.057H0z" class="cls-12" transform="translate(1167.896 2109.879)"/>
                <path id="Path_1143" d="M1172.2 2109.879V2111h-1.967v-1.124" class="cls-16"/>
            </g>
            <path id="Line_1200" d="M0 0L6.743 0" class="cls-16" transform="translate(1167.891 2109.923)"/>
            <path id="Line_1201" d="M0 0L6.743 0" class="cls-16" transform="translate(1167.905 2104.72)"/>
            <path id="Line_1202" d="M0 0L0 10.156" class="cls-16" transform="translate(1167.943 2109.85)"/>
            <path id="Line_1203" d="M0 0L13.462 0" class="cls-16" transform="translate(1161.176 2114.913)"/>
            <path id="Line_1204" d="M0 0L0 10.156" class="cls-16" transform="translate(1161.156 2109.85)"/>
            <path id="Rectangle_1574" d="M0 0H53.965V3.754H0z" class="cls-11" transform="translate(1130.879 2074.712)"/>
        </g>
        <g id="Group_1107">
            <g id="Group_1104">
                <path id="Path_1144" d="M935.687 1951.147l72.249.359a21.861 21.861 0 0 0 5.986-.8c2.858-.8 7.47-2.132 12.571-3.8l-101.874-.506c1.044 2.976 5.673 4.72 11.068 4.747z" class="cls-10"/>
                <path id="Path_1145" d="M942.492 1932.167a9.988 9.988 0 0 0-7.1 2.546l6.66.033-.018 3.756-10.48-.052a11.025 11.025 0 0 1-2.674 1.63s-4.466 1.213-4.484 4.993a3.91 3.91 0 0 0 .22 1.324l101.728.505c6.943-2.27 9.052-5.187 14.632-8.179l.03-6.067z" class="cls-8"/>
                <path id="Path_1146" d="M1043.709 1932.67l-2.7-.014-.03 6.067c.978-.524 1.887-1.052 2.708-1.579z" class="cls-12"/>
                <path id="Path_1147" d="M942.055 1934.746l-6.66-.033a9.781 9.781 0 0 0-.749.77 21.741 21.741 0 0 1-3.089 2.967l10.48.052z" class="cls-14"/>
            </g>
            <path id="Path_1148" d="M1020.547 1940.608s14.051 6.878 16.4 7.594 6.107-.909 6.107-.909l-6.573-6.6" class="cls-8"/>
            <g id="Group_1105">
                <circle id="Ellipse_190" cx="1.526" cy="1.526" r="1.526" class="cls-7" transform="translate(965.989 1935.342)"/>
                <circle id="Ellipse_191" cx="1.526" cy="1.526" r="1.526" class="cls-7" transform="translate(971.622 1935.37)"/>
                <circle id="Ellipse_192" cx="1.526" cy="1.526" r="1.526" class="cls-7" transform="translate(977.256 1935.398)"/>
                <circle id="Ellipse_193" cx="1.526" cy="1.526" r="1.526" class="cls-7" transform="translate(982.89 1935.426)"/>
                <circle id="Ellipse_194" cx="1.526" cy="1.526" r="1.526" class="cls-7" transform="translate(988.523 1935.454)"/>
                <circle id="Ellipse_195" cx="1.526" cy="1.526" r="1.526" class="cls-7" transform="translate(994.157 1935.482)"/>
                <circle id="Ellipse_196" cx="1.526" cy="1.526" r="1.526" class="cls-7" transform="translate(999.791 1935.51)"/>
                <circle id="Ellipse_197" cx="1.526" cy="1.526" r="1.526" class="cls-7" transform="translate(1005.424 1935.538)"/>
                <circle id="Ellipse_198" cx="1.526" cy="1.526" r="1.526" class="cls-7" transform="translate(1011.058 1935.566)"/>
            </g>
            <path id="Rectangle_1575" d="M0 0H3.521V3.756H0z" class="cls-14" transform="rotate(.285 -388485.83 190544.445)"/>
            <g id="Group_1106">
                <path id="Path_1149" d="M1046.15 1913.754s-5.957-1.735-11.111 6.337a28.6 28.6 0 0 1-5.237 5.97 51.676 51.676 0 0 0 13.448-4.578z" class="cls-8"/>
                <path id="Path_1150" d="M1029.8 1926.061a42.33 42.33 0 0 1-11.448 7.157l20.455.1 4.441-11.837a51.676 51.676 0 0 1-13.448 4.58z" class="cls-8"/>
            </g>
            <path id="Path_1151" d="M993.932 1943.428l15.389 12.416s-5.767 3.24-10.457 2.277c-2.908-.6-37.015-14.853-37.015-14.853" class="cls-8"/>
        </g>
        <g id="Group_1110">
            <g id="Group_1108">
                <path id="Rectangle_1576" d="M0 0H62.207V42.17H0z" class="cls-8" transform="rotate(-180 306.208 1110.04)"/>
            </g>
            <g id="Group_1109">
                <path id="Line_1205" d="M0 0L0 42.258" class="cls-17" transform="translate(554.273 2177.667)"/>
                <path id="Line_1206" d="M0 0L0 42.258" class="cls-17" transform="translate(559.19 2177.667)"/>
                <path id="Line_1207" d="M0 0L0 42.258" class="cls-17" transform="translate(564.107 2177.667)"/>
                <path id="Line_1208" d="M0 0L0 42.258" class="cls-17" transform="translate(569.024 2177.667)"/>
                <path id="Line_1209" d="M0 0L0 42.258" class="cls-17" transform="translate(573.941 2177.667)"/>
                <path id="Line_1210" d="M0 0L0 42.258" class="cls-17" transform="translate(578.858 2177.667)"/>
                <path id="Line_1211" d="M0 0L0 42.258" class="cls-17" transform="translate(583.775 2177.667)"/>
                <path id="Line_1212" d="M0 0L0 42.258" class="cls-17" transform="translate(588.692 2177.667)"/>
                <path id="Line_1213" d="M0 0L0 42.258" class="cls-17" transform="translate(593.609 2177.667)"/>
                <path id="Line_1214" d="M0 0L0 42.258" class="cls-17" transform="translate(598.526 2177.667)"/>
                <path id="Line_1215" d="M0 0L0 42.258" class="cls-17" transform="translate(603.443 2177.667)"/>
                <path id="Line_1216" d="M0 0L0 42.258" class="cls-17" transform="translate(608.36 2177.667)"/>
            </g>
            <path id="Rectangle_1577" d="M0 0H64.399V3.692H0z" class="cls-8" transform="translate(549.219 2177.947)"/>
            <path id="Rectangle_1578" d="M0 0H64.399V3.692H0z" class="cls-8" transform="translate(549.219 2216.483)"/>
        </g>
        <g id="Group_1113">
            <g id="Group_1111">
                <path id="Rectangle_1579" d="M0 0H62.207V42.17H0z" class="cls-12" transform="rotate(-180 322.022 1132.053)"/>
            </g>
            <g id="Group_1112">
                <path id="Line_1217" d="M0 0L0 42.258" class="cls-17" transform="translate(585.902 2221.693)"/>
                <path id="Line_1218" d="M0 0L0 42.258" class="cls-17" transform="translate(590.819 2221.693)"/>
                <path id="Line_1219" d="M0 0L0 42.258" class="cls-17" transform="translate(595.736 2221.693)"/>
                <path id="Line_1220" d="M0 0L0 42.258" class="cls-17" transform="translate(600.653 2221.693)"/>
                <path id="Line_1221" d="M0 0L0 42.258" class="cls-17" transform="translate(605.57 2221.693)"/>
                <path id="Line_1222" d="M0 0L0 42.258" class="cls-17" transform="translate(610.487 2221.693)"/>
                <path id="Line_1223" d="M0 0L0 42.258" class="cls-17" transform="translate(615.404 2221.693)"/>
                <path id="Line_1224" d="M0 0L0 42.258" class="cls-17" transform="translate(620.321 2221.693)"/>
                <path id="Line_1225" d="M0 0L0 42.258" class="cls-17" transform="translate(625.237 2221.693)"/>
                <path id="Line_1226" d="M0 0L0 42.258" class="cls-17" transform="translate(630.154 2221.693)"/>
                <path id="Line_1227" d="M0 0L0 42.258" class="cls-17" transform="translate(635.071 2221.693)"/>
                <path id="Line_1228" d="M0 0L0 42.258" class="cls-17" transform="translate(639.988 2221.693)"/>
            </g>
            <path id="Rectangle_1580" d="M0 0H64.399V3.692H0z" class="cls-12" transform="translate(580.847 2221.973)"/>
            <path id="Rectangle_1581" d="M0 0H64.399V3.692H0z" class="cls-12" transform="translate(580.847 2260.509)"/>
        </g>
        <g id="Group_1116">
            <g id="Group_1114">
                <path id="Rectangle_1582" d="M0 0H62.207V42.17H0z" class="cls-10" transform="rotate(-180 289.4 1132.053)"/>
            </g>
            <g id="Group_1115">
                <path id="Line_1229" d="M0 0L0 42.258" class="cls-17" transform="translate(520.659 2221.693)"/>
                <path id="Line_1230" d="M0 0L0 42.258" class="cls-17" transform="translate(525.576 2221.693)"/>
                <path id="Line_1231" d="M0 0L0 42.258" class="cls-17" transform="translate(530.492 2221.693)"/>
                <path id="Line_1232" d="M0 0L0 42.258" class="cls-17" transform="translate(535.409 2221.693)"/>
                <path id="Line_1233" d="M0 0L0 42.258" class="cls-17" transform="translate(540.326 2221.693)"/>
                <path id="Line_1234" d="M0 0L0 42.258" class="cls-17" transform="translate(545.243 2221.693)"/>
                <path id="Line_1235" d="M0 0L0 42.258" class="cls-17" transform="translate(550.16 2221.693)"/>
                <path id="Line_1236" d="M0 0L0 42.258" class="cls-17" transform="translate(555.077 2221.693)"/>
                <path id="Line_1237" d="M0 0L0 42.258" class="cls-17" transform="translate(559.994 2221.693)"/>
                <path id="Line_1238" d="M0 0L0 42.258" class="cls-17" transform="translate(564.911 2221.693)"/>
                <path id="Line_1239" d="M0 0L0 42.258" class="cls-17" transform="translate(569.828 2221.693)"/>
                <path id="Line_1240" d="M0 0L0 42.258" class="cls-17" transform="translate(574.745 2221.693)"/>
            </g>
            <path id="Rectangle_1583" d="M0 0H64.399V3.692H0z" class="cls-10" transform="translate(515.604 2221.973)"/>
            <path id="Rectangle_1584" d="M0 0H64.399V3.692H0z" class="cls-10" transform="translate(515.604 2260.509)"/>
        </g>
        <g id="Group_1117">
            <path id="Path_1152" d="M953.144 2223.32c-2.154 4.309-1.507 9 1.454 10.481s7.1-.813 9.257-5.121 1.507-9-1.454-10.481-7.101.813-9.257 5.121z" class="cls-14"/>
        </g>
    </g>
</svg>
