<svg xmlns="http://www.w3.org/2000/svg" width="439" height="337.474" viewBox="0 0 439 337.474">
    <defs>
        <style>
            .cls-7{fill:#fff}.cls-2{fill:#ffb27d}.cls-3{fill:#0d395a}.cls-4{fill:#195d8f}.cls-6{fill:#233862}.cls-9{fill:#d83333}.cls-10{fill:#e84040}
        </style>
    </defs>
    <g id="pic-benfit" transform="translate(-50 -2005.645)">
        <path id="Path_1747" fill="#fff" d="M3114.176 936.506l-80.541 26.637 16.169 13.475-69.692 72.956-61.088-52.452-243.848 199.8 2.147.033h60.745l180.357-147.777 64.4 55.3 97.685-102.264 17.452 14.545z" data-name="Path 1747" opacity="0.378" transform="translate(-2625.176 1069.139)"/>
        <g id="Group_1516" data-name="Group 1516" transform="translate(216 2128.87)">
            <path id="Path_1776" d="M1417.666 745.2a2.461 2.461 0 0 0-.439 2.633.023.023 0 0 0 .007.013c.635 1.755 2.733 3.715 5.17 5.672.312.251.589.48.83.692.063.055.127.111.186.167s.1.088.143.13c2.273 2.095 1.417 2.575 5.5 6.826 4.656 4.844 7.861 4.931 8.773 4.49.771-.376-.8-2.945-2.532-5.833-.084-.139-.167-.28-.253-.421-.231-.384-.461-.774-.691-1.159-2.035-3.475-1.512-5.106-1.03-10.277.392-4.2 6.538-23.479 6.538-23.479l-8.922-1.537s-2.687 15.349-5.647 17.714c-1.583 1.26-3.355 1.276-4.876 2.21q-.161.1-.316.2a11.713 11.713 0 0 0-2.441 1.959z" class="cls-2" data-name="Path 1776" transform="translate(-1353.919 -551.742)"/>
            <path id="Path_1777" d="M1417.666 773.084a2.461 2.461 0 0 0-.439 2.632.023.023 0 0 0 .007.013c.778 1.753 2.823 3.7 5.179 5.654.308.255.579.49.822.71.063.055.127.111.186.167s.1.088.143.13c2.273 2.095 1.417 2.575 5.5 6.826 4.656 4.844 7.861 4.931 8.773 4.49.771-.376-.8-2.945-2.532-5.833a19.837 19.837 0 0 1-8.3-6.115c-2.8-3.577-4.672-8.173-6.581-10.836q-.161.1-.316.2a11.713 11.713 0 0 0-2.442 1.962z" class="cls-3" data-name="Path 1777" transform="translate(-1353.919 -579.627)"/>
            <path id="Path_1778" d="M1581.191 735.826c.551 2.754 4.476 2.294 8.862 1.223s3.343.2 9.585-.488 8.133-3.018 8.323-3.946c.17-.823-2.913-1.114-6.222-1.5-.416-.046-.834-.1-1.252-.15-3.734-.468-6.47-2.879-9.863-4.858-3.213-1.875-8.009-9.513-8.009-9.513l-8.56.678s4.491 6.823 6.229 9.789c1.021 1.744.967 4.052.84 5.833a10.97 10.97 0 0 0 .067 2.932z" class="cls-2" data-name="Path 1778" transform="translate(-1445.507 -547.941)"/>
            <path id="Path_1779" d="M1599.856 757.373c4.386-1.071 3.344.2 9.585-.488s8.133-3.018 8.323-3.946c.171-.823-2.913-1.114-6.222-1.5l-.031.064a17.6 17.6 0 0 1-8.939 2.779c-4.234.1-8.72-1.11-11.644-1.063a10.96 10.96 0 0 0 .066 2.928c.551 2.753 4.476 2.298 8.862 1.226z" class="cls-3" data-name="Path 1779" transform="translate(-1455.31 -568.265)"/>
            <path id="Path_1780" d="M1471.359 612.192l-8 21.532-10.447 28.115a16.909 16.909 0 0 1-5.55-.507 24.055 24.055 0 0 1-5.367-2.613s2.9-30.187 8.312-47.516c1.387-4.448 2.941-8.046 4.656-10.071 8.386-9.914 16.396 11.06 16.396 11.06z" class="cls-3" data-name="Path 1780" transform="translate(-1368.478 -479.041)"/>
            <path id="Path_1781" d="M1384.607 543.32c-5.242-1.691-20.194.48-35.214 3.42l-3.144-5.187-32.442-2.534s-10.705 23.74-4.844 38.867c.861 2.223 2.994 3.161 5.911 3.208s19.359.473 25.628.473c16.134 0 34.145-11.09 36.475-11.556 3.814-.763 5.339 6.865 9.153 14.873s35.848 35.467 35.848 35.467 4.923.049 6.958-.714a6.85 6.85 0 0 0 2.988-1.886s-35.495-70.617-47.317-74.431z" class="cls-4" data-name="Path 1781" transform="translate(-1289.862 -444.365)"/>
            <path id="Path_1782" d="M1318.69 313.8a11.508 11.508 0 0 0-6.238-1.611 18.777 18.777 0 0 1-3.1-.2c-12.293-1.652-19.692 16.212-20.127 21.624-.8 9.977-6.08 11.5-13.509 17.746-14.9 12.529-10.527 27.087-2.382 32.5 4.887 3.246 13.5 0 13.5 0 .122.085 23.558-13.1 35.11-19.462 17.321-2.466 3.704-46.451-3.254-50.597z" class="cls-3" data-name="Path 1782" transform="translate(-1265.751 -311.882)"/>
            <path id="Path_1783" d="M1355.074 399.473c.051.032-5.684 1.991-9.519.292-3.607-1.594-6.34-7.529-6.286-7.533 1.641-.075 3.443-1.51 4.83-10.925l.7.251 11.749 4.228s-.851 3.77-1.4 7.359c-.466 3.015-.716 5.901-.074 6.328z" class="cls-2" data-name="Path 1783" transform="translate(-1308.562 -352.376)"/>
            <path id="Path_1784" fill="#ed975d" d="M1364.286 386.138s-.851 3.77-1.4 7.359c-6.749-1.215-9.4-7.939-10.348-11.587z" data-name="Path 1784" transform="translate(-1316.301 -352.727)"/>
            <path id="Path_1785" d="M1364.389 361.457s-16.076-2.158-14.578-12.148.432-17 10.759-16.042 11.745 5.065 12.056 8.522-4.017 19.972-8.237 19.668z" class="cls-2" data-name="Path 1785" transform="translate(-1314.654 -324.305)"/>
            <path id="Path_1786" d="M1365.585 335.077s-10.291 8.868-17.291 9.583-9.65-1.532-9.65-1.532a27.334 27.334 0 0 0 6.609-8.954 4.922 4.922 0 0 1 4.058-2.9c4.998-.433 14.473-.63 16.274 3.803z" class="cls-6" data-name="Path 1786" transform="translate(-1308.198 -323.069)"/>
            <path id="Path_1787" d="M1387.855 336.1s3.443 3.328 4.527 5.8c1.047 2.382 1.36 8.08.527 10.344 0 0 5.364-10.43 2.327-15.5-3.22-5.373-7.381-.644-7.381-.644z" class="cls-6" data-name="Path 1787" transform="translate(-1336.901 -324.886)"/>
            <path id="Path_1788" d="M1349.3 437.914c-.486 32.541-.134 25.741-3.693 28.829-.857.743-3.269 1.186-6.443 1.4-9.978.662-27.518-.982-28.185-2.826-2.3-6.38-.677-8.362-2.6-18.131-.2-1.038-.448-2.163-.738-3.388-1.6-6.709-3.159-8.992 2.521-19.77 5.151-9.764 10.5-17.688 10.983-17.4 13.59 8.067 14.686 1.287 14.686 1.287s13.709 14.126 13.469 29.999z" class="cls-7" data-name="Path 1788" transform="translate(-1289.253 -367.136)"/>
            <path id="Path_1789" d="M1463.356 651.545l-10.447 28.115a16.906 16.906 0 0 1-5.55-.507 24.05 24.05 0 0 1-5.367-2.612s2.9-30.187 8.312-47.516z" class="cls-4" data-name="Path 1789" transform="translate(-1368.478 -496.862)"/>
            <path id="Path_1790" d="M1377.368 409.715s13.984 2.371 15.625 8.392 11.306 41.415 11.306 41.415-7.109 1.277-10.393-2.007-11.427-30.468-11.427-30.468z" class="cls-7" data-name="Path 1790" transform="translate(-1330.784 -368.945)"/>
            <path id="Path_1791" fill="#ebf3ff" d="M1342.274 505.952c-9.978.662-27.518-.982-28.185-2.826-2.3-6.38-.677-8.362-2.6-18.131l4.813-13.552s-.8 15.091 3.655 19.06 18.221 7.662 20.385 10.978a12.143 12.143 0 0 1 1.932 4.471z" data-name="Path 1791" transform="translate(-1292.361 -404.949)"/>
            <path id="Path_1792" d="M1357.925 536.887s9.844-2.192 11.432-1.318 5.47 4.055 5.957 5.162-3.536-.84-4.844-1.191c-.847-.227-3.078.548-4.182.916-4.646 1.549-7.493.752-7.493.752z" class="cls-2" data-name="Path 1792" transform="translate(-1319.444 -442.232)"/>
            <path id="Path_1793" d="M1297.473 406.615s-13.218.814-17.794 7.2c-6.441 8.984-19.219 47.27-11.9 52.377 8.247 5.75 37.533 1.5 37.533 1.5s.975-4.555-.382-6.759-23.391-5.763-24.408-6.78 12.713-19.832 12.713-22.883 4.238-24.655 4.238-24.655z" class="cls-7" data-name="Path 1793" transform="translate(-1265.584 -367.137)"/>
            <path id="Path_1794" d="M1386.5 542.432a19.053 19.053 0 0 0 2.739 2.978 2.02 2.02 0 0 0 1.113.238l-1.39-2.5z" class="cls-2" data-name="Path 1794" transform="translate(-1336.112 -446.355)"/>
            <path id="Path_1795" d="M1385.358 535.857l6 2.912a1.068 1.068 0 0 1-.994.384 14.3 14.3 0 0 1-2.6-.715z" class="cls-2" data-name="Path 1795" transform="translate(-1335.445 -442.52)"/>
        </g>
        <g id="Group_1520" data-name="Group 1520" transform="translate(-1851.286 1144.249)">
            <path id="Path_1799" d="M2127.684 1030.729s-20.635 22.211-21.61 30.571 9.885 21.41 9.885 21.41z" class="cls-9" data-name="Path 1799" transform="translate(-134.089 -77.488)"/>
            <path id="Path_1800" d="M2000.106 1654.843s.729 11.781 2.925 11.945c.292.022 11.137 0 11.137 0l13.844-.115a4.613 4.613 0 0 0-4.147-4.186c-4.048-.723-10.828-3.66-13.291-9.207-2.59-5.838-10.468 1.563-10.468 1.563z" class="cls-3" data-name="Path 1800" transform="translate(2.814 -471.41)"/>
            <path id="Path_1801" d="M2087.823 1655.033s.728 11.782 2.924 11.946c.292.022 11.138 0 11.138 0l13.844-.115a4.612 4.612 0 0 0-4.146-4.186c-4.048-.723-10.828-3.661-13.291-9.207-2.592-5.839-10.469 1.562-10.469 1.562z" class="cls-3" data-name="Path 1801" transform="translate(-115.74 -471.531)"/>
            <path id="Path_1802" d="M2083.33 1283.187s-3.571 24.05-16.989 66.759-15.22 61.194-15.22 61.194l-14.491-.389s-.221-46.642 5.959-68.117 1.182-77.373 1.182-77.373z" class="cls-3" data-name="Path 1802" transform="translate(-65.343 -226.426)"/>
            <path id="Path_1803" d="M2058.6 1268.581a605.443 605.443 0 0 1-5.356 80.725c-5.945 44.5-3.859 63.375-3.859 63.375l-14.46.532s-8.735-44.48-6.3-66.751-11.994-76.374-11.994-76.374z" class="cls-4" data-name="Path 1803" transform="translate(-33.593 -228.535)"/>
            <path id="Path_1804" d="M2043.2 1005.274l7.716 5.227 11.131-2.18c-.156-.933-.9-4.8-1.576-8.3l-.12-.615-1.08-5.539-10.41-4.74-3.881-1.768c.01.063.307 3.308.349 3.781a28.424 28.424 0 0 1-2.129 14.134z" class="cls-2" data-name="Path 1804" transform="translate(-46.365 -49.947)"/>
            <path id="Path_1805" d="M2055.766 1022.741c-.216-.094-13.418-4.106-14.85-3.612s-2.275 3.375-2.275 3.375l21.59 5.016s-1.705-3.581-4.465-4.779z" class="cls-9" data-name="Path 1805" transform="translate(-42.952 -70.095)"/>
            <path id="Path_1806" d="M2010.169 1120.458c2.259 10.586 39.479 11.758 49.053 2.123 1.089-1.1 1.132-6.2.706-13.07-.833-13.429-3.46-33.626-3.583-43.947a84.8 84.8 0 0 0-1.618-14.709 122.956 122.956 0 0 0-4.758-17.6s-18.191-6.06-21.591-5.015c-16.378 5.037-20.467 81.631-18.209 92.218z" class="cls-10" data-name="Path 1806" transform="translate(-32.689 -75.831)"/>
            <path id="Path_1807" d="M2028.523 1145.627c-.833-13.428-3.46-33.626-3.583-43.947a84.755 84.755 0 0 0-1.618-14.709l-10.94-1.979s-10.597 45.36 16.141 60.635z" class="cls-9" data-name="Path 1807" transform="translate(-1.284 -111.948)"/>
            <path id="Path_1808" d="M2024.016 1196.813a2.743 2.743 0 0 0 .827 3.09c1.568 1.238 2.587 3.248 2.232 4.719s-3.784 3.878-4.975 3.494-3.618-2.315-3.358-3.092-1.645-6.8 1.253-9.131 4.021.92 4.021.92z" class="cls-2" data-name="Path 1808" transform="translate(-2.739 -181.842)"/>
            <path id="Path_1809" d="M1972.493 1034.8s10.669 2.048 19.194 15.03 14.136 22.635 12.581 27.325-15.791 20.972-18.251 20.978-6.434-1.843-6.666-6.021c0 0 10.013-15.654 8.029-17.99-.848-1-13.066-11.25-14.8-6.6-2.862 7.683-.087-32.722-.087-32.722z" class="cls-10" data-name="Path 1809" transform="translate(36.431 -80.073)"/>
            <path id="Path_1810" fill="#fca56b" d="M2047.98 994.361c2.292 4.011 10.81 7.465 14.362 8.734l-.12-.615c-.579-2.979-1.08-5.539-1.08-5.539l-10.41-4.74c-2.3-.028-3.698.509-2.752 2.16z" data-name="Path 1810" transform="translate(-48.24 -53.02)"/>
            <path id="Path_1811" d="M2057.433 953.591s-16.742 5.463-19.859-5.413-7.376-17.5 3.181-21.444 13.833-.442 15.724 2.925 5.228 22.231.954 23.932z" class="cls-2" data-name="Path 1811" transform="translate(-40.612 -10.337)"/>
            <path id="Path_1812" d="M2069.1 918.277s-1.042 12.667-3.566 12.123-4.812-.947-4.435 2.87 3.885 8.217-3.888 8.91-18.994-20.1-16.866-24.044c6.139-11.386 37.634-13.752 28.755.141z" class="cls-3" data-name="Path 1812" transform="translate(-53.895)"/>
        </g>
    </g>
</svg>
