<svg xmlns="http://www.w3.org/2000/svg" width="311.319" height="429.324" viewBox="0 0 311.319 429.324">
    <defs>
        <style>
            .cls-1{fill:#ffb27d}.cls-2{fill:#0d395a}.cls-3{fill:#00c1d5}.cls-4{fill:#e84040}.cls-5{fill:#195d8f}.cls-6{fill:#c6f4f3}
        </style>
    </defs>
    <g id="pic-available" transform="translate(-68.994 -2821.63)">
        <g id="Group_1521" data-name="Group 1521">
            <g id="Group_1510" data-name="Group 1510" transform="translate(-390.814 2740.376)">
                <g id="Group_1488" data-name="Group 1488" transform="translate(536.729 153.522)">
                    <g id="Group_1478" data-name="Group 1478" transform="translate(37.045 175.481)">
                        <path id="Path_1698" d="M589.373 376.2s3.365 9.534 4.673 13.085c3.552-1.869 7.664-3.739 7.664-3.739l-4.486-10.846z" class="cls-1" data-name="Path 1698" transform="translate(-509.581 -219.417)"/>
                        <path id="Path_1699" d="M545.873 376.247l1 9.222h7.227v-9.222z" class="cls-1" data-name="Path 1699" transform="translate(-531.133 -218.653)"/>
                        <path id="Path_1700" d="M538.793 274.675s-4.237 17.7-2.243 56.329 12.463 99.448 12.463 99.448h12.462s2.243-113.281 4.61-123c18.445 47.855 45.611 121.506 47.855 123 10.094-2.617 11.964-4.112 11.964-4.112s-15.577-61.937-21.558-90.351-14.581-57.867-14.581-64.846c-13.465-1.495-50.972 3.532-50.972 3.532z" class="cls-2" data-name="Path 1700" transform="translate(-536.016 -270.865)"/>
                        <path id="Path_1701" d="M617.391 392.136s-12.852-11.008-17.673-12.856c-4.137-.292-5.2 4.258-5.2 4.258a4.373 4.373 0 0 1-3.094-2.856c-2.016.924-1.268 6.782-1.143 7.778s10.343 3.677 16.2 6.169 15.334 3.863 10.91-2.493z" class="cls-2" data-name="Path 1701" transform="translate(-509.247 -217.158)"/>
                        <path id="Path_1702" d="M555.8 382.3s-3.863-5.732-7.975-.872c-4.237 5.234-10.218 11.15-10.344 15.483s7.977.967 13.585-3.269 8.6-5.484 8.973-7.6-1.808-7.165-1.808-7.165.433 3.11-2.431 3.423z" class="cls-2" data-name="Path 1702" transform="translate(-535.293 -217.353)"/>
                    </g>
                    <g id="Group_1487" data-name="Group 1487">
                        <g id="Group_1484" data-name="Group 1484">
                            <path id="Path_1703" d="M531.919 220.218S556.1 209.131 561.58 208.9s22.634 4.243 34.572 2.135c6.232 15.454 2.814 45.99 4.06 55.46s-4.2 38.862-7.193 43.1c-9.507 7.34-47.328 7.247-53.123 1.015-1.681-1.807-9.222-46.359-7.977-59.07s0-31.322 0-31.322z" class="cls-3" data-name="Path 1703" transform="translate(-501.07 -126.089)"/>
                            <path id="Path_1704" d="M601.876 185.517s1.557-6.73-.312-9.6a40.181 40.181 0 0 1-4.486-8.475c-.872-2.617.842-4.05 1.964-2.367s2.43 4.02 3.178 4.113.467-11.682 3.084-15.142c1.4-1.682 1.262 1.029.935 2.991s-.42 8.832-.42 8.832 1.869-9.486 3.318-11.4 2.243-.513 1.775.842-1.821 9.907-1.821 10.094c2.29-6.028 3.926-9.674 5.186-10.094s.609 1.542 0 3.178-2.476 7.29-2.523 7.757c2.991-4.205 5.047-6.169 6.543-5.934s-.046 1.355-.842 2.29a19.013 19.013 0 0 0-3.972 6.87c-.935 3.317-.9 5.982-1.884 6.822s-.5 9.223-.5 9.223z" class="cls-1" data-name="Path 1704" transform="translate(-468.837 -153.522)"/>
                            <path id="Path_1705" d="M574.825 229.717s17.519-9.092 24.249-16.321 12.213-29.161 12.213-41.873a60.869 60.869 0 0 1 12.711 0s0 41.873-11.466 57.575-33.869 26.609-33.869 26.609-2.591-14.648-3.838-25.99z" class="cls-3" data-name="Path 1705" transform="translate(-479.744 -144.769)"/>
                            <g id="Group_1483" data-name="Group 1483" transform="translate(0 94.129)">
                                <g id="Group_1481" data-name="Group 1481" transform="translate(65.402 29.314)">
                                    <path id="Path_1706" d="M565.294 245.133s-4.962 11.684-4.015 21.837a1.478 1.478 0 0 1-1.168 1.626 4.6 4.6 0 0 1-4.268-1.283 1.314 1.314 0 0 1-.36-1c.149-2.559 1.02-14.009 4.937-23.221 3.56-2.557 4.874 2.041 4.874 2.041z" class="cls-4" data-name="Path 1706" transform="translate(-554.731 -232.971)"/>
                                    <g id="Group_1480" data-name="Group 1480">
                                        <path id="Path_1707" d="M596.892 239.5s-13.845 3.815-26.994.875a44.825 44.825 0 0 1-10.944-4.305 20.076 20.076 0 0 0-3.975 11.478c7.3 1.979 6.5 1.389 11.466 3.837 5.877 2.9 16.091 10.675 20.471 16.929 5.284-13.282 9.976-28.814 9.976-28.814z" class="cls-4" data-name="Path 1707" transform="translate(-554.979 -236.068)"/>
                                        <g id="Group_1479" data-name="Group 1479">
                                            <path id="Path_1708" d="M558.954 236.068a44.825 44.825 0 0 0 10.944 4.305c.694.156 1.391.281 2.086.4a25.11 25.11 0 0 0-3.713 11.591c-.64-.365-1.259-.7-1.826-.983-4.968-2.448-4.169-1.859-11.466-3.837a20.076 20.076 0 0 1 3.975-11.476z" class="cls-4" data-name="Path 1708" transform="translate(-554.979 -236.068)"/>
                                        </g>
                                        <path id="Path_1709" d="M579.591 252.135c-2.755 7.956-4.165 14.691-3.146 15.044s4.075-5.813 6.83-13.769 4.165-14.691 3.146-15.044-4.075 5.814-6.83 13.769z" class="cls-4" data-name="Path 1709" transform="translate(-544.508 -234.936)"/>
                                        <path id="Path_1710" d="M586.409 238.367c-.28-.1-.721.317-1.262 1.113.25 1.859-1.111 7.7-3.443 14.43-1.995 5.76-4.144 10.567-5.566 12.656.045.338.138.561.295.615 1.017.351 4.075-5.813 6.83-13.769s4.164-14.692 3.146-15.045z" class="cls-4" data-name="Path 1710" transform="translate(-544.496 -234.936)"/>
                                    </g>
                                </g>
                                <g id="Group_1482" data-name="Group 1482">
                                    <path id="Path_1711" d="M548.748 255.258s4.454-1.122 6.308-2.8a20.658 20.658 0 0 0 3.274-3.9c1.286-1.777 6.169-2.242 8.6-1s4 3.894 3.193 5.327a1.923 1.923 0 0 1-1.309.811 2.217 2.217 0 0 1 .76 2.049 2.1 2.1 0 0 1-1.632 1.5 1.66 1.66 0 0 1 .505 1.839 1.625 1.625 0 0 1-1.566 1.089 2.014 2.014 0 0 1 .313 1.995c-.5 1-1.817.987-2.689.613-.021-.96-.984-2.378-3.169-1.984-2.589.467-2.493 2.773-4.923 2.025-1.518-.467-6.574 1.122-6.574 1.122z" class="cls-1" data-name="Path 1711" transform="translate(-492.664 -201.407)"/>
                                    <path id="Path_1712" d="M542.093 216.466s-19.441 21.357-29.535 47.09c-7.093 18.083 14.83 29.6 58.946 18.382 1.993-6.855-.811-13.709-.811-13.709s-34.27 3.489-36.265 0 4.923-15.469 7.54-18.2 7.105-25.259.125-33.563z" class="cls-3" data-name="Path 1712" transform="translate(-511.245 -216.466)"/>
                                </g>
                            </g>
                        </g>
                        <g id="Group_1486" data-name="Group 1486" transform="translate(48.521 44.075)">
                            <path id="Path_1713" d="M550.773 202.264s.748 8.879-1.962 16.169c7.477 9.347 12.991 4.768 14.486 1.309-1.682-5.14-2.8-13.926-2.43-16.917s-10.094-.561-10.094-.561z" class="cls-1" data-name="Path 1713" transform="translate(-541.154 -173.909)"/>
                            <g id="Group_1485" data-name="Group 1485">
                                <path id="Path_1714" d="M546.131 200.837a24.482 24.482 0 0 0 3.614 13.209c3.988 6.106 7.975 6.854 10.842 5.608s8.723-10.842 7.851-23.3-13.833-11.092-16.824-8.1-5.807 8.191-5.483 12.583z" class="cls-1" data-name="Path 1714" transform="translate(-542.494 -181.401)"/>
                                <path id="Path_1715" d="M553.89 195.545s12.9 7.571 22.619 1.4c1.964-1.029 4.112-6.076 4.112-6.076s-3.552 1.309-5.234.935-6.356-6.261-11.5-7.944-12.616-1.195-13.179 3.944c-4.86-.953-10.975 9.48-2.355 22.677-.354-4.376.58-8.022 2.823-9.517s2.714-5.419 2.714-5.419z" class="cls-2" data-name="Path 1715" transform="translate(-543.523 -182.995)"/>
                                <path id="Path_1716" d="M559.93 198.093s2.077-3.223 4.32-1.853-1.335 6.993-2.55 7.3a1.446 1.446 0 0 1-1.771-1.712 18.211 18.211 0 0 0 .001-3.735z" class="cls-1" data-name="Path 1716" transform="translate(-535.667 -176.6)"/>
                                <path id="Path_1717" d="M548.741 198.866s-1.865-2.811-3.833-2.279c-1.431.387-1.693 2.189-.29 4.968 1.853 3.67 4.066 3.637 4.123 1.216s0-3.905 0-3.905z" class="cls-1" data-name="Path 1717" transform="translate(-543.691 -176.294)"/>
                                <path id="Path_1718" d="M559.665 193.706a24.534 24.534 0 0 1 1.371 9.036c1.5-4.175 3.552-8.038 3.3-9.409s-4.671.373-4.671.373z" class="cls-2" data-name="Path 1718" transform="translate(-535.776 -178.133)"/>
                                <path id="Path_1719" d="M550.544 195.012s-2.711 5.013-1.308 9.517c-1.262-1.805-2.186-6.348-3.921-7.184 1.209-2.285 5.229-2.333 5.229-2.333z" class="cls-2" data-name="Path 1719" transform="translate(-542.886 -177.041)"/>
                            </g>
                        </g>
                    </g>
                </g>
                <g id="Group_1509" data-name="Group 1509" transform="translate(459.809 192.396)">
                    <g id="Group_1498" data-name="Group 1498" transform="translate(27.194 13.356)">
                        <g id="Group_1494" data-name="Group 1494" transform="translate(0 94.847)">
                            <g id="Group_1493" data-name="Group 1493" transform="translate(0 60.774)">
                                <g id="Group_1490" data-name="Group 1490" transform="translate(45.382 2.388)">
                                    <path id="Path_1720" d="M508.34 297.675s3.8 29.9 5.161 39.233 12.065 71.939 12.065 76.493v6.374l9.335-1.593s.911-42.8 0-55.776-4.554-20.262-4.554-20.262v-48.036z" class="cls-1" data-name="Path 1720" transform="translate(-508.34 -294.108)"/>
                                    <path id="Path_1721" d="M520.338 374.2s.57 6.374-1.138 9.106 4.1 6.142 7.057 5.689 6.716-2.843 6.033-4.778-2.6-5.578-2.526-10.017c-2.026-2.166-9.426 0-9.426 0z" class="cls-1" data-name="Path 1721" transform="translate(-503.112 -254.904)"/>
                                    <g id="Group_1489" data-name="Group 1489" transform="translate(14.529 127.058)">
                                        <path id="Path_1722" d="M519.615 380.411a22.583 22.583 0 0 0-1.3 11.407c1.011 6.033 8.669 5.168 14.474 4.485s4.364-8.011 1.974-11.881a37.47 37.47 0 0 1-2.945-5.351s1.344 4.413-3.266 5.153-8.652-.624-8.937-3.813z" class="cls-2" data-name="Path 1722" transform="translate(-518.056 -379.071)"/>
                                    </g>
                                </g>
                                <g id="Group_1492" data-name="Group 1492">
                                    <path id="Path_1723" d="M488.2 294.726s1.961 30.075 2.753 39.475 7.651 72.542 7.373 77.086l-.39 6.363 9.414-1.021s3.523-42.664 3.407-55.671-3.306-20.5-3.306-20.5l2.934-47.946z" class="cls-1" data-name="Path 1723" transform="translate(-472.935 -292.511)"/>
                                    <path id="Path_1724" d="M498.93 372.524s-.295 5.807-4.278 8.425-6.83 3.984-7.513 4.781-.568 5.008 7.513 3.187 14.911-5.576 14.911-6.146-1.44-7.159-1.3-8.977a23.277 23.277 0 0 0-9.333-1.27z" class="cls-1" data-name="Path 1724" transform="translate(-473.59 -252.895)"/>
                                    <g id="Group_1491" data-name="Group 1491" transform="translate(0 128.054)">
                                        <path id="Path_1725" d="M513.664 378.14s1.5 2.162 2.155 7.74c-11.528 6.6-31.265 12.542-37.636 8.6-1.877-1.161 10.586-10.293 18.678-14.952 1.388 4.195 4.965 5.047 8.72 3.8s8.083-5.188 8.083-5.188z" class="cls-2" data-name="Path 1725" transform="translate(-477.993 -378.14)"/>
                                    </g>
                                </g>
                            </g>
                            <path id="Path_1726" d="M494.483 253.794s-14.712 58.852-5.225 160.874c33.693 8.5 63.283-.6 63.283-.6s-4.331-147.525-21.177-160.274c-15.254-4.325-36.881 0-36.881 0z" class="cls-5" data-name="Path 1726" transform="translate(-473.991 -251.872)"/>
                        </g>
                        <path id="Path_1727" d="M530.865 188.448s5.33 5.152 3.513 15.258.16 12.777 2.363 18.593c9.562 25.248 7.815 47.858-.546 54.4s-41.076-1.092-41.076-1.092l5.086-40.026s6.547-18.94 4.729-27.443 25.931-19.69 25.931-19.69z" class="cls-2" data-name="Path 1727" transform="translate(-469.508 -188.448)"/>
                        <g id="Group_1495" data-name="Group 1495" transform="translate(8.979 31.183)">
                            <path id="Path_1728" d="M527.347 209.753c-8.859-1.94-21.563 2.8-27.186 5.464-.259 14.983-10.1 20.145-9.255 19.254-5.463 6.375-.189 13.616 3 21.357 2.459 5.971-6.291 41.263-9.717 58.933-1.385 7.144 4.96 8.119 12.151 9.24 10.316 1.609 28.476 3.577 39.63-.935 7.107-2.876 2.816-28.973 3.644-29.254 2-.68-.84 31.031 11.684 24.331-5.692-7.512-13.317-57.046-10.2-71.4 2.121-4.6 2.457-12.448 3.7-13.268l1.7-12.406c-2.885-4.499-13.571-10.092-19.151-11.316z" class="cls-4" data-name="Path 1728" transform="translate(-483.997 -209.3)"/>
                        </g>
                        <g id="Group_1497" data-name="Group 1497" transform="translate(32.135 16.549)">
                            <g id="Group_1496" data-name="Group 1496">
                                <path id="Path_1729" d="M506.62 204.836s1.024 7.171 0 9.219c-.571 1.146-2.816 2.385-4.844 3.277a3.845 3.845 0 0 0-1.717 5.551c2.433 3.975 6.622 5.922 11.911 5.4 4.027-.4 8.415-3.271 11.391-5.614a3.5 3.5 0 0 0-.048-5.55c-2.173-1.639-4.6-3.855-5.044-5.835-.52-2.319-.879-11.772-.879-11.772z" class="cls-1" data-name="Path 1729" transform="translate(-499.481 -199.514)"/>
                            </g>
                        </g>
                    </g>
                    <g id="Group_1501" data-name="Group 1501" transform="translate(59.8 7.195)">
                        <path id="Path_1730" d="M517.832 185.32s-9.025-.266-13.395 7.661c-4.889 8.865-6.142 18.242-2.671 20.884s13.073-.387 19.472-6.137 7.194-20.668-3.406-22.408z" class="cls-1" data-name="Path 1730" transform="translate(-499.796 -183.837)"/>
                        <g id="Group_1500" data-name="Group 1500" transform="translate(5.936 .639)">
                            <g id="Group_1499" data-name="Group 1499">
                                <path id="Path_1731" d="M504.014 189.615s-1.416 1.4 2.514 3.366 6.018 4.234 6.348 7.347a12.429 12.429 0 0 1-.487 5.18s3.647-3.737 5.328-2.131-.033 4.436-2.1 5.451a32.858 32.858 0 0 0 .085 5.858 28.646 28.646 0 0 0 11.4-13.816c4-9.8-3.1-13.671-7.573-15.436s-12.168.007-15.515 4.181z" class="cls-2" data-name="Path 1731" transform="translate(-503.766 -184.755)"/>
                            </g>
                        </g>
                        <path id="Path_1732" d="M522.276 186.088s-3.7-3.049-13.936-1.12-8.663 10.108-6 11.38a78.772 78.772 0 0 0 9.32 3.024c-2.17-1.57.737-2.782 2.373-2.964s8.243-10.32 8.243-10.32z" class="cls-2" data-name="Path 1732" transform="translate(-499.521 -184.328)"/>
                    </g>
                    <g id="Group_1507" data-name="Group 1507">
                        <g id="Group_1506" data-name="Group 1506">
                            <path id="Path_1733" d="M473.674 203.22s2.967-5.031 3.09-8.354-.689-3.134-.434-4.367c.622-3 2.856-2.858 3.952-2.316 1.693-1.155 2.915-.437 3.036-.173 2.049-1.343 3.58-.586 3.81-.076 1.558-.662 2.207-.61 2.776.173s.547 1.214.227 2.711a21.122 21.122 0 0 1-1.729 4.7 48.162 48.162 0 0 1-6.131 4.44c-.435.175-4.611 6.151-4.611 6.151z" class="cls-1" data-name="Path 1733" transform="translate(-452.939 -175.683)"/>
                            <g id="Group_1503" data-name="Group 1503">
                                <g id="Group_1502" data-name="Group 1502" transform="translate(.738)">
                                    <path id="Path_1734" d="M511.484 201.661l-30.135-9.151 1.59-5.234 30.133 9.152a2.691 2.691 0 0 1 .775 3.094c-.823 2.227-2.363 2.139-2.363 2.139z" class="cls-5" data-name="Path 1734" transform="translate(-449.874 -175.673)"/>
                                    <path id="Path_1735" d="M501.8 199.959L461.435 187.7l2.13-7.011 40.367 12.26a5.768 5.768 0 0 1 0 3.718c-.784 2.733-2.132 3.292-2.132 3.292z" class="cls-5" data-name="Path 1735" transform="translate(-459.741 -178.936)"/>
                                    <path id="Path_1736" d="M482.05 195.8l-21.75-6.61 2.749-9.673 21.922 6.658s1.606 1.938.347 5.5c-1.177 3.33-3.268 4.125-3.268 4.125z" class="cls-5" data-name="Path 1736" transform="translate(-460.302 -179.517)"/>
                                </g>
                                <path id="Path_1737" d="M463.56 184.833c-.773 2.665-2.122 4.615-3.013 4.356s-.989-2.628-.217-5.292 2.122-4.615 3.013-4.356.988 2.627.217 5.292z" class="cls-5" data-name="Path 1737" transform="translate(-459.809 -179.517)"/>
                            </g>
                            <path id="Path_1738" d="M480.243 206.214s1.953-4.914 4.036-6.985 5.065-2.167 6.26-4 .749-3.55-.2-5.536-1.682-.969-4.515-1.1-3.86.737-2.441 1.892c1.017.828 3.7.562 4.292.7.345 1.156-2.029 2.7-2.029 2.7s-4.72 2.72-6 2.93-2.7 2.227-2.7 2.227l-2.213 4.415z" class="cls-1" data-name="Path 1738" transform="translate(-452.414 -175.092)"/>
                            <g id="Group_1505" data-name="Group 1505" transform="translate(26.172 7.05)">
                                <g id="Group_1504" data-name="Group 1504">
                                    <path id="Path_1739" d="M477.31 185.5a4.041 4.041 0 0 1 3.369-1.255c2.249.153 3.432 4.326.757 6.3-.848.625-.966-1.723-.754-3s-2.116-1.562-3.372-2.045z" class="cls-1" data-name="Path 1739" transform="translate(-477.31 -184.231)"/>
                                    <path id="Path_1740" d="M481.858 186.763s.861-.809 3.111-.658 1.94 4.609 1.06 5.192-1.575-.66-1.362-1.931-1.529-2.51-2.809-2.603z" class="cls-1" data-name="Path 1740" transform="translate(-475.057 -183.312)"/>
                                    <path id="Path_1741" d="M480.521 185.692s.837-.692 3.088-.541 2.318 5.227.568 6.021c-.96.437-1.06-1.6-.848-2.876s-1.529-2.511-2.808-2.604z" class="cls-1" data-name="Path 1741" transform="translate(-475.719 -183.786)"/>
                                    <path id="Path_1742" d="M479.143 185.149a2.513 2.513 0 0 1 3.082-.473c2.9 1.189 1.836 6.377.794 6.544-2.135.339-1.279-2.2-1.068-3.468s-1.526-2.51-2.808-2.603z" class="cls-1" data-name="Path 1742" transform="translate(-476.402 -184.153)"/>
                                </g>
                            </g>
                        </g>
                        <path id="Path_1743" d="M509.358 222.516c-5.529 2.9-28.457 6.421-28.056 2.9.57-5.019 7.169-28.037 7.169-28.037l-9.611-2.808s-16.469 29.117-12.925 40.75c1.536 5.043 23.718 9.178 37.168 5.361 7.216-2.092 6.136-11.727 13.719-11.723-1.102-.606-6.944-6.715-7.464-6.443z" class="cls-4" data-name="Path 1743" transform="translate(-457.021 -172.059)"/>
                    </g>
                    <g id="Group_1508" data-name="Group 1508" transform="translate(41.395 12.119)">
                        <path id="Path_1744" d="M497.863 206.624a7.436 7.436 0 0 1 .667-5.132c1.394-2.231 2.907-2.958 3.514-5.805a4.381 4.381 0 0 0-1.757-4.726c-.606-.425-2.068 0-2.068 0a2.024 2.024 0 0 0-1.165-1.326 2.524 2.524 0 0 0-1.916.571 1.332 1.332 0 0 0-1.129-1.427 2.578 2.578 0 0 0-1.4.217 1.591 1.591 0 0 0-1.151-1.253c-1.528-.582-2.527 1.116-2.527 1.116s2.177 1.14.818 4.557c-.715 1.792-2.182 2.65-2.121 5.52s2.652 6.869 2.3 8.868 7.935-1.18 7.935-1.18z" class="cls-1" data-name="Path 1744" transform="translate(-487.423 -187.621)"/>
                        <path id="Path_1745" d="M545.695 227.956c-.624-2.569-2.717-4.424-5.174-3.449-8.388 3.329-22.356 7.815-33.382 8.013-7.289.13-8.24-33.006-8.24-33.006l-10.9.416s-2.69 37.023 4.35 44.985 35.426.933 45.631-2.777c7.139-2.598 9.055-8.652 7.715-14.182z" class="cls-4" data-name="Path 1745" transform="translate(-487.489 -181.728)"/>
                    </g>
                    <path id="Path_1746" d="M461.421 184.214c.606-2.091 1.563-3.722 2.379-4.213a.807.807 0 0 0-.458-.461c-.891-.259-2.24 1.691-3.013 4.356s-.674 5.035.217 5.292a.809.809 0 0 0 .633-.144c-.428-.849-.363-2.744.242-4.83z" class="cls-5" data-name="Path 1746" transform="translate(-459.809 -179.517)"/>
                </g>
            </g>
            <g id="Group_991" data-name="Group 991" transform="translate(69 2821.63)">
                <path id="Path_984" d="M597.37 595.223s.228-13.057 15.51-11.632c0 0 1.6-11.632 12.317-11.86a10.142 10.142 0 0 1 6.843 3.193 15.763 15.763 0 0 1 3.58-1.492 11.751 11.751 0 0 1 14.872 9.961c.015.154.023.3.023.427a18.994 18.994 0 0 1 2.592.005 10.133 10.133 0 0 1 9.563 10.433c-.013.248-.035.495-.067.737z" class="cls-6" data-name="Path 984" transform="translate(-597.37 -571.73)"/>
                <path id="Path_985" fill="#b9efec" d="M667.611 593.827s1.071-6.96 7.228-7.228c0 0 5.956-.669 8.3 7.228z" data-name="Path 985" transform="translate(-593.197 -570.847)"/>
            </g>
            <g id="Group_992" data-name="Group 992" transform="translate(315 2983.443)">
                <path id="Path_986" d="M844.858 519.533s.228-13.057 15.51-11.632c0 0 1.6-11.632 12.317-11.86a10.144 10.144 0 0 1 6.843 3.193 15.763 15.763 0 0 1 3.58-1.492 11.751 11.751 0 0 1 14.872 9.961c.015.153.023.3.023.427a19.007 19.007 0 0 1 2.592.005 10.133 10.133 0 0 1 9.563 10.433c-.013.248-.035.495-.068.737z" class="cls-6" data-name="Path 986" transform="translate(-844.858 -496.04)"/>
            </g>
        </g>
    </g>
</svg>
