<svg xmlns="http://www.w3.org/2000/svg" width="263.512" height="424.524" viewBox="0 0 263.512 424.524">
    <defs>
        <style>
            .cls-3{fill:#00c1d5}.cls-4{fill:#0d395a}.cls-5{fill:#ffb27d}.cls-7{fill:#01001e}.cls-8{fill:#353535}
        </style>
    </defs>
    <g id="pic-contactus-2" transform="translate(-1072.295 -1446.808)">
        <path id="Path_1402" fill="none" stroke="#0d395a" stroke-dasharray="11 11" stroke-width="3px" d="M52.765 299.523S106.3 92.288 53.2 42.465-15.431 53.44 16.539 78.083c20.173 15.55 32.2 15.655 60.036 11.955 15.863-2.107 82.349-16.142 103.56-46.643" transform="rotate(161 525.883 977.683)"/>
        <g id="Group_1447" transform="rotate(-167.96 708.532 699.507)">
            <path id="Rectangle_1807" fill="#195d8f" d="M0 0H94.667V58.667H0z" transform="translate(0 .135)"/>
            <path id="Path_1398" d="M47.308 29.341L0 58.681V0z" class="cls-3"/>
            <path id="Path_1399" d="M0 29.341L46.583 0v58.681z" class="cls-3" transform="translate(48.083)"/>
            <path id="Path_1400" d="M47.195 0L94.39 41.935H0z" class="cls-4" transform="translate(.139 16.867)"/>
        </g>
        <g id="Group_1448" transform="rotate(2 -46476.695 31667.278)">
            <path id="Path_1636" d="M15.491 13.412s-6.007 7.127-13.657 4.146a23.173 23.173 0 0 1-1.669-6.915c0-.361-.007-.711-.013-1.044C.111 6.3 0 4.441 0 4.441h.008C.356 4.294 11.7-.364 11.693.023c-.193 8.936 3.798 13.389 3.798 13.389z" class="cls-5" transform="translate(52.752 23.186)"/>
            <path id="Path_1637" fill="#ed975d" d="M10.554.084A17.747 17.747 0 0 1 .152 7.529C.111 4.225 0 2.371 0 2.371h.008C.322 2.285 10.88-.514 10.554.084z" transform="translate(52.752 25.256)"/>
            <path id="Path_1638" d="M1.985 21.031s12.761 3 14.506-4.975S21.06 3.1 12.987.844 2.659 1.287 1.429 3.807s-2.719 16.238.556 17.224z" class="cls-5" transform="translate(48.391 6.253)"/>
            <path id="Path_1639" d="M20.324 24.482c.174.111 2.92.955 8.12-9.4a9.022 9.022 0 0 0-.531-8.252C26.011 3.718 19.264 1.274 13.659.21S6.708 2.3 5.387 5.471C4 8.8 0 11.538 0 11.538c4.834 2.7 10.656-1.162 12.672-.527s2.729 3.814 2.881 4.833.384 1.865 2.92.955 1.146 3.594.741 4.456c0 0-.345 2.295 1.11 3.227z" class="cls-4" transform="translate(44.121)"/>
            <path id="Path_1622" d="M3.665.009c.773-.131.671 1.165 1.133 3.814.017.1.025.207.045.317.116.425.249.859.4 1.288.091.233.193.471.3.707C5.029 4.039 4.882 1.008 5.6.8c.946-.278.7.989 1.313 4.347C7.3 7.31 8.1 8.845 8.8 9.186c1.789.878 2.388-4.643 3.039-2.367a22.727 22.727 0 0 1 .467 3.661c.083 1.88-2.193 8.37-1.311 9.323 1.677 1.814 6.629 8.761 6.629 8.761s3.407 10.343-3.057 9.058c-1.269-.252-2.418-10.984-7.081-15.616C3.921 18.469.815 11.618.38 7.842c-.024-.2-.078-.4-.115-.6-.374-1.576-.347-3 .046-3.185.6-.282 1.159 1.622 1.4 3.07a6.615 6.615 0 0 0 .414 1.342C1.259 5.725.944 2.346 1.608 2.024c.706-.342 1.227 2.025 1.529 3.743a6.433 6.433 0 0 0 .518 1.518C2.951 4.386 2.487.209 3.665.009z" class="cls-5" transform="rotate(-14 68.539 8.415)"/>
            <g id="Group_1440" transform="rotate(-14 135.14 -19.77)">
                <path id="Path_1623" d="M41.435 13.427c3.69-3.565 18.486 10.173 11.578 19.117-5.693 7.37-25.681 7.9-34.493 4.364C10.491 33.685 7.2 26.3 0 2.547L7.154 0s12.794 18.768 16.86 24.532c-.001 0 12.739-6.582 17.421-11.105z" class="cls-3"/>
            </g>
            <path id="Path_1625" d="M8.546 12.473s-.257 3.355-.954 4.5C6.006 19.578-.172 24.156 0 27.472s16.918-5.272 21.177-9.158c1.816-1.658 2.368-4.5-.952-6.946C18.219 9.889 16.361 0 16.361 0z" class="cls-7" transform="translate(80.672 193.551)"/>
            <path id="Path_1626" d="M15.234 8.154s-1.614 2.951-2.72 3.708C10 13.583 1.257 15.216.053 18.31s18.584 1.2 24.291.364c3.914-.569 4.921-3.784 1.991-9.173C25.143 7.312 27.489 0 27.489 0z" class="cls-7" transform="translate(20.658 199.944)"/>
            <path id="Path_1627" d="M32.531 23.092L20.366 55.157a117.678 117.678 0 0 1 1.567 15.9c0 6.661-7.442 44.522-7.442 44.522H0V52.4L8.742 0h17.232z" class="cls-8" transform="translate(33.657 94.352)"/>
            <path id="Path_1629" d="M5.132 0L0 33.991S6.541 57.054 4.266 67.6a7.887 7.887 0 0 0-.166 1.089c1.724-7.948 3.337-16.115 3.337-18.85a92 92 0 0 0-1.562-14.018l6.625-15.4z" transform="translate(48.147 107.176)" style="mix-blend-mode:multiply;isolation:isolate" fill="#008eba" opacity="0.16"/>
            <path id="Path_1630" d="M21.149 0l10.513 15.455s1.76 25.182 2.313 40.823c.057 1.6.03 3.193-.017 4.792a15.02 15.02 0 0 0 1.682 7.893c2.35 3.858 11.522 9.612 17.183 51.618l-13.708 6.692S17.232 78.906 15.274 71.887 0 13.6 0 13.6z" class="cls-8" transform="translate(48.147 81.428)"/>
            <path id="Path_1634" d="M11.052 6.162S16.457 5.3 23.526 0c0 0 2.906.062 7.977 13.115 3.437 8.848 10.875 53.384 7.14 57.864 0 0-9.642 11.391-38.584 4.249 0 0-.48-3.967 1.3-23.051 1.612-17.252 9.693-46.015 9.693-46.015z" class="cls-3" transform="translate(41.162 27.88)"/>
            <path id="Path_1635" fill="#09bacc" d="M5.788 57.967L0 13.863 12.163 0s6.573 40.773 6.137 46.229c-.718 9.013-12.512 11.738-12.512 11.738z" transform="rotate(28 -60.962 140.014)"/>
            <path id="Path_604" fill="#ec965d" d="M4.395 1.234s-.822 6.849-1.27 8.688S-.476 18.643.062 20.9s3.787 6.913 4.973 7.926c2.129 1.82 2.563-4.617 1.2-8.041a1.888 1.888 0 0 1 .053-1.532c.7-1.43 2.033-4.433 1.841-6.087C7.874 10.947 9.654 0 9.654 0z" transform="rotate(28 -175.21 106.31)"/>
            <path id="Path_629" d="M6.829 72.8a21.3 21.3 0 0 1-4.443-2.051s3.931-22.267 4.061-24.421S0 14.356 0 14.356L16.949 0S19.1 41.605 18.66 47.061c-.718 9.013-8.341 26.039-8.341 26.039a8.96 8.96 0 0 1-3.49-.3z" class="cls-3" transform="rotate(28 -47.416 135.146)"/>
        </g>
    </g>
</svg>
