<svg xmlns="http://www.w3.org/2000/svg" width="14" height="14" viewBox="0 0 14 14">
    <g fill="none" fill-rule="evenodd">
        <g fill="#FFC107" fill-rule="nonzero">
            <path d="M13.963 5.29c-.091-.295-.343-.505-.64-.533l-4.04-.383L7.683.47C7.566.185 7.298 0 7 0c-.298 0-.566.185-.684.472L4.718 4.374l-4.041.383c-.297.028-.548.238-.64.533-.093.296-.007.62.217.825L3.31 8.91l-.901 4.14c-.066.305.047.62.29.802.13.098.282.148.435.148.132 0 .264-.037.382-.11L7 11.714l3.484 2.174c.255.16.577.146.818-.037.242-.183.355-.498.29-.802l-.901-4.14 3.054-2.794c.225-.205.31-.53.218-.826z" transform="translate(-404 -2571) translate(404 2571)"/>
        </g>
    </g>
</svg>
