<?xml version="1.0" encoding="UTF-8"?> <svg xmlns="http://www.w3.org/2000/svg" width="193" height="44" viewBox="0 0 193 44"><g fill="none" fill-rule="evenodd"><g><g><path fill="#274678" d="M19.99 39.678c1.191 0 2.158.967 2.158 2.16 0 1.194-.967 2.162-2.158 2.162-1.193 0-2.16-.968-2.16-2.162 0-1.193.967-2.16 2.16-2.16zm16.745 0c1.192 0 2.158.967 2.158 2.16 0 1.194-.966 2.162-2.158 2.162-1.193 0-2.158-.968-2.158-2.162 0-1.193.965-2.16 2.158-2.16zM4.324 16.697v4.974h3.248v4.574H4.324v4.15h.003l-.003.076v.15c0 1.317 1.008 2.387 2.252 2.387h2.535V21.67h4.316v11.337h4.407V21.67h4.317v3.005s2.11-2.994 4.223-2.994v-.01h.566c2.099 0 3.174 1.364 3.584 2.855h.068l.024-.036c.223-.33 1.963-2.81 4.058-2.81v-.01h.566c3.17 0 3.683 3.453 3.75 5.06.022.488 0 .807 0 .807v5.47l.01 4.574H4.395c-2.342 0-4.255-1.941-4.388-4.39-.005-.088-.007-.177-.007-.267 0-.09.002-.18.007-.27V16.698h4.317zm30.35 10.013c-.012-.641-.098-4.04-1.638-3.05-1.234.798-2.346 3.18-2.346 3.18v6.168h3.984zm-8.3 0c-.013-.641 0-3.877-1.64-3.05-1.216.531-2.583 3.297-2.583 3.297v6.05h4.223zM11.282 4.301c6.829 0 12.383 5.56 12.383 12.397H20.93c0-5.326-4.327-9.657-9.647-9.657zm0-4.301C20.48 0 27.96 7.49 27.96 16.697h-2.735c0-7.696-6.255-13.958-13.943-13.958zm0 8.71c4.4 0 7.98 3.583 7.98 7.987h-2.737c0-2.893-2.352-5.248-5.243-5.248z" transform="translate(-330 -15) translate(330 15)"></path><path fill="#C8A830" d="M12.797 15.362v2.616c0 .2.162.363.363.363.2 0 .365-.163.365-.363v-1.054h1.462C14.776 18.656 13.297 20 11.5 20c-1.797 0-3.276-1.344-3.486-3.076h1.528v1.083c0 .2.162.362.363.362H11.5c.201 0 .364-.162.364-.362v-2.645h.933zM11.5 13c1.84 0 3.347 1.407 3.5 3.199h-1.476V15c0-.201-.162-.364-.363-.364H11.5c-.2 0-.363.163-.363.364v2.643h-.868v-2.673c0-.2-.164-.362-.363-.362-.201 0-.365.162-.365.362v1.228H8C8.155 14.407 9.66 13 11.5 13z" transform="translate(-330 -15) translate(330 15)"></path><path fill="#274678" d="M52.013 24.666h10.113c-2.165-1.335-3.786-2.688-4.861-4.053h-.437c-1.398 1.516-3.003 2.868-4.815 4.053zM49.57 18h8.938c1.797 2.492 4.96 4.512 9.491 6.06l-1.174 3.062c-.753-.346-1.46-.684-2.12-1.014v1.26h-6.081v2.456h5.897v2.591h-5.897v2.882h8.362V38H47.013v-2.703h8.27v-2.882h-5.712v-2.59h5.713v-2.457h-5.898v-1.17c-.63.315-1.275.624-1.934.924L46 24.059c2.749-.857 5.037-2.005 6.865-3.446h-3.294V18zM76.834 35.17H87.71v-3.186H76.834v3.186zm13.977-5.858V39H87.71v-1.224H76.834V39h-3.102v-9.688h17.079zM79.046 18l3.282.89c-.956 1.752-2.006 3.319-3.146 4.698-.41.506-.812.951-1.208 1.338 2.675-.046 5.7-.157 9.075-.334-.943-.98-1.969-1.96-3.079-2.94l2.258-1.538c2.493 2.036 4.75 4.321 6.772 6.86l-2.486 1.87c-.41-.637-.866-1.268-1.367-1.892-5.73.55-11.318.854-16.759.913L72 24.836c.714.016 1.345.03 1.892.044.73-.592 1.422-1.268 2.076-2.026 1.033-1.203 2.06-2.82 3.078-4.854zM101.273 33.54h11.267v-1.045h-11.267v1.045zm0-2.601h11.267v-.929h-11.267v.929zm0-2.533h11.267v-.929h-11.267v.929zM102.388 17l2.137 1.556c-.666.651-1.41 1.278-2.229 1.882v4.553h-2.788v-2.74c-.79.464-1.619.906-2.486 1.323L96 20.902c2.726-1.13 4.855-2.431 6.388-3.902zm15.054 1.95l.117 2.3-6.947.559c.248.202.497.37.743.511 1.255.713 2.393 1.068 3.416 1.068.34 0 .62-.55.837-1.65L118 22.763c-.388 1.454-.845 2.322-1.37 2.602-.311.2-.651.316-1.022.348v9.966h-3.649c1.782.17 3.795.41 6.041.72L117.257 39c-2.788-.697-5.568-1.185-8.34-1.464l.673-1.858h-5.436l.767 1.742c-2.03.866-4.724 1.395-8.085 1.58L96 36.514c2.292-.061 4.684-.341 7.179-.836h-4.972V25.34h14.287c-1.224-.325-2.409-.884-3.555-1.673-.619-.418-1.183-.952-1.695-1.603l-3.834.302-.092-2.3 2.602-.208c-.388-.775-.72-1.642-.999-2.603l2.695-.255c.371 1.007.774 1.874 1.208 2.602l2.531-.186c-.665-.294-1.3-.542-1.904-.743l1.138-1.511c.945.202 2.083.542 3.415 1.023l-.534 1.068 3.972-.302zM135.264 25.327l2.73.179c0 1.103-.053 2.137-.159 3.106.288 1.236.796 2.442 1.525 3.619.985 1.594 2.198 2.95 3.64 4.065L140.997 39c-1.455-1.49-2.654-3.069-3.594-4.737-.212-.387-.417-.773-.615-1.16-.85 2.233-2.085 4.198-3.708 5.897l-2.07-2.614c1.486-1.088 2.548-2.427 3.185-4.022.713-1.906 1.07-4.252 1.07-7.037zm-3.821 6.144c.636.982 1.13 1.914 1.479 2.792l-2.39 1.14c-.318-1.206-.712-2.271-1.182-3.194l2.093-.738zm-9.829-12.064h4.3V18h2.707v1.407h4.118v2.346h-4.118v.983h3.299v1.72c1.335-1.861 2.086-3.962 2.252-6.3l2.822.358c-.107.922-.26 1.786-.456 2.59h5.848v1.967c-.35 2.353-.843 4.23-1.48 5.63l-2.82-.894c.637-1.296 1.076-2.658 1.32-4.089h-3.709c-.577 1.43-1.327 2.711-2.253 3.843l-1.524-1.34v1.586h-9.555v-2.123h8.941l-.204-.178c.181-.223.348-.439.5-.648h-9.169v-2.122h3.48v-.983h-4.299v-2.346zm-.09 9.383h11.488v2.257h-4.003v5.518c0 1.504-.638 2.257-1.912 2.257h-2.093l-.387-2.682c.637.046 1.002.067 1.092.067.38 0 .57-.178.57-.536v-4.624h-4.755V28.79zm1.569 2.68l2.343.558c-.348 1.892-.955 3.77-1.819 5.631L121 36.386c.88-1.474 1.577-3.113 2.093-4.915zM157.933 29.046h4.994v-4.922h-4.994v4.922zm-7.86 0h4.698v-4.922h-4.699v4.922zM147 21.474h7.771V18h3.163v3.474H166v10.222h-8.066V39h-3.163v-7.304H147V21.474zM189.733 23.575c1.036 2.192 2.125 5.249 3.267 9.169l-3.267 1.18c-.776-3.718-1.72-6.899-2.832-9.539l2.832-.81zM181.052 17c2.33 1.744 4.12 3.288 5.369 4.631l-2.194 2.661c-1.888-2.222-3.678-4.004-5.369-5.348L181.052 17zm-.754 5.926v9.818c0 .804.099 1.358.297 1.667.305.293.876.44 1.713.44h1.668c.472 0 .808-.122 1.005-.37.214-.432.358-1.968.435-4.607l3.015 1.366c-.275 2.778-.663 4.583-1.166 5.416-.593.897-1.575 1.344-2.946 1.344h-2.787c-1.813 0-2.956-.347-3.426-1.042-.488-.695-.732-1.852-.732-3.473V22.926h2.924zm-7.013.742l2.833.533c-.381 4.23-1.082 7.725-2.102 10.488L171 33.485c1.189-2.64 1.95-5.91 2.285-9.817z" transform="translate(-330 -15) translate(330 15)"></path></g></g></g></svg> 