<?xml version="1.0" encoding="UTF-8"?> <svg xmlns="http://www.w3.org/2000/svg" width="315" height="73" viewBox="0 0 315 73"><g fill="none" fill-rule="evenodd"><g><g><g><g fill="#274678"><path d="M53.272 54.157h-2.959V44.22s1.793-3.84 3.784-5.128c2.486-1.593 2.624 3.883 2.643 4.918v10.147h-3.468zm-16.737 0v-9.75s2.207-4.458 4.17-5.315c2.643-1.332 2.624 3.883 2.643 4.918v10.147h-6.813zm27.17 0v-8.815s.033-.512 0-1.298c-.109-2.59-.938-8.158-6.05-8.158h-.915v.02c-3.62 0-6.586 4.584-6.586 4.584h-.109c-.663-2.402-2.397-4.604-5.782-4.604h-.915v.02c-3.407 0-6.813 4.824-6.813 4.824v-4.844H29.57v18.271h-7.11v-18.27h-6.965v18.27h-4.088c-2.007 0-3.634-1.722-3.634-3.847v-.24c0-.04.005-.08.006-.123h-.006V43.26h5.24v-7.373h-5.24v-8.013H.809V53.59c-.008.144-.013.288-.013.433 0 .146.005.29.013.434.212 3.943 3.299 7.072 7.078 7.072H63.72l-.015-7.372zM19 15v4.414c4.665 0 8.459 3.794 8.459 8.46h4.414C31.873 20.773 26.098 15 19 15" transform="translate(-713 -4077) translate(0 4011) translate(713 66) translate(.204 .035)"></path><path d="M19 7.896v4.413c8.582 0 15.564 6.982 15.564 15.565h4.414c0-11.016-8.962-19.979-19.978-19.979" transform="translate(-713 -4077) translate(0 4011) translate(713 66) translate(.204 .035)"></path><path d="M19 .965v4.414c12.404 0 22.495 10.09 22.495 22.494h4.413C45.908 13.036 33.837.965 19 .965M33.048 64.907c-1.923 0-3.483 1.56-3.483 3.482 0 1.923 1.56 3.483 3.483 3.483s3.482-1.56 3.482-3.483-1.559-3.482-3.482-3.482M60.065 64.907c-1.923 0-3.482 1.56-3.482 3.482 0 1.923 1.559 3.483 3.482 3.483 1.923 0 3.483-1.56 3.483-3.483s-1.56-3.482-3.483-3.482" transform="translate(-713 -4077) translate(0 4011) translate(713 66) translate(.204 .035)"></path></g><path fill="#C8A830" d="M15.946 27.283v-2.051c0-.334.27-.605.605-.605.335 0 .606.27.606.605v4.466h1.442V25.28c0-.335.27-.606.605-.606h2.763c.334 0 .605.27.605.606v2.002h2.454c-.256-2.993-2.762-5.344-5.822-5.344s-5.565 2.35-5.821 5.344h2.563z" transform="translate(-713 -4077) translate(0 4011) translate(713 66)"></path><path fill="#C8A830" d="M22.572 28.494v1.76c0 .335-.271.606-.605.606-.335 0-.606-.271-.606-.605v-4.37H19.81v4.418c0 .335-.271.606-.606.606H16.55c-.334 0-.605-.271-.605-.606v-1.81h-2.541c.35 2.896 2.81 5.14 5.799 5.14 2.99 0 5.45-2.244 5.8-5.14h-2.432z" transform="translate(-713 -4077) translate(0 4011) translate(713 66)"></path><path fill="#274678" d="M85.313 41.007h16.202c-3.47-2.188-6.065-4.404-7.787-6.642h-.702c-2.239 2.485-4.81 4.699-7.713 6.642zm-3.912-10.924h14.32c2.878 4.086 7.946 7.394 15.204 9.929l-1.882 5.018c-1.206-.566-2.338-1.12-3.396-1.66v2.065h-9.742v4.024h9.448v4.244h-9.448v4.724h13.396v4.428H77.305v-4.428h13.25v-4.724H81.4v-4.244h9.153v-4.024h-9.449v-1.92c-1.008.518-2.04 1.024-3.099 1.515l-2.325-5.018c4.403-1.404 8.07-3.286 10.997-5.647h-5.277v-4.282zM125.127 57.836h17.604v-5.278h-17.604v5.278zm22.623-9.707v16.054h-5.02v-2.029h-17.603v2.03h-5.02V48.128h27.643zm-19.044-18.746l5.315 1.475c-1.55 2.904-3.247 5.5-5.093 7.786-.664.838-1.316 1.576-1.956 2.216 4.331-.075 9.226-.258 14.688-.554-1.526-1.623-3.187-3.247-4.981-4.87l3.653-2.549c4.034 3.373 7.688 7.161 10.961 11.368l-4.024 3.1c-.663-1.059-1.401-2.103-2.214-3.137-9.275.911-18.317 1.415-27.124 1.512l-.628-5.018c1.157.026 2.178.05 3.063.073 1.181-.982 2.3-2.102 3.358-3.358 1.673-1.992 3.334-4.674 4.982-8.044zM165.456 55.511h17.899v-1.66h-17.899v1.66zm0-4.134h17.899v-1.476h-17.899v1.476zm0-4.023h17.899V45.88h-17.899v1.475zm1.771-18.12l3.396 2.473c-1.059 1.034-2.239 2.031-3.543 2.99v7.233h-4.428v-4.355c-1.256.737-2.572 1.44-3.949 2.103l-1.624-4.243c4.33-1.797 7.713-3.864 10.148-6.2zm23.915 3.1l.185 3.655-11.035.885c.393.321.787.59 1.18.812 1.994 1.132 3.802 1.697 5.426 1.697.541 0 .984-.872 1.329-2.62l3.801 1.624c-.616 2.312-1.342 3.69-2.178 4.134-.492.32-1.033.504-1.623.553v15.832h-5.795c2.829.27 6.028.651 9.596 1.145l-1.181 4.132c-4.428-1.107-8.846-1.882-13.249-2.324l1.07-2.953h-8.635l1.218 2.77c-3.224 1.375-7.505 2.212-12.844 2.507l-1.328-3.948c3.641-.098 7.441-.542 11.403-1.329h-7.898V42.484h22.698c-1.944-.517-3.827-1.404-5.647-2.658-.985-.665-1.882-1.514-2.694-2.547l-6.09.48-.147-3.653 4.133-.332c-.615-1.23-1.144-2.608-1.586-4.133l4.281-.407c.589 1.6 1.229 2.977 1.919 4.133l4.021-.294c-1.057-.468-2.066-.862-3.025-1.18l1.808-2.4c1.501.32 3.309.861 5.425 1.623l-.849 1.698 6.311-.48zM220.4 41.487l4.429.295c0 1.822-.086 3.53-.257 5.13.466 2.042 1.29 4.034 2.472 5.98 1.599 2.631 3.567 4.87 5.905 6.714l-3.248 4.467c-2.362-2.46-4.305-5.069-5.831-7.824-.345-.64-.677-1.28-.996-1.919-1.38 3.69-3.384 6.937-6.016 9.743l-3.358-4.318c2.41-1.796 4.133-4.01 5.166-6.644 1.157-3.149 1.735-7.023 1.735-11.624zm-6.2 10.148c1.034 1.624 1.833 3.163 2.4 4.614l-3.875 1.883c-.517-1.994-1.157-3.752-1.92-5.278l3.396-1.219zm-15.942-19.928h6.975v-2.324h4.392v2.324h6.68v3.874h-6.68v1.624h5.35v2.843c2.165-3.076 3.384-6.545 3.655-10.407l4.576.59c-.173 1.525-.42 2.951-.74 4.28h9.487v3.248c-.567 3.887-1.366 6.99-2.4 9.3l-4.576-1.476c1.033-2.14 1.747-4.39 2.14-6.754h-6.015c-.934 2.363-2.153 4.478-3.654 6.347l-2.472-2.213v2.62h-15.5v-3.506h14.504l-.332-.295c.295-.368.566-.726.81-1.07h-14.871v-3.507h5.646v-1.624h-6.975v-3.874zm-.148 15.5h18.637v3.728h-6.494v9.115c0 2.486-1.034 3.728-3.101 3.728h-3.395l-.628-4.43c1.034.076 1.624.112 1.772.112.614 0 .922-.295.922-.887v-7.638h-7.713v-3.728zm2.546 4.428l3.802.922c-.566 3.125-1.55 6.225-2.952 9.302l-4.245-2.104c1.427-2.436 2.559-5.143 3.395-8.12zM258.22 47.688h8.156v-8.156h-8.156v8.156zm-12.843 0h7.677v-8.156h-7.677v8.156zm-5.018-12.548h12.695v-5.757h5.166v5.757h13.176v16.94H258.22v12.103h-5.166V52.08h-12.695V35.14zM308.773 39.863c1.673 3.494 3.432 8.365 5.278 14.613l-5.278 1.883c-1.255-5.928-2.78-10.997-4.576-15.204l4.576-1.292zm-14.024-10.48c3.765 2.78 6.655 5.24 8.673 7.38l-3.543 4.244c-3.05-3.543-5.942-6.384-8.673-8.525l3.543-3.099zm-1.217 9.446v15.647c0 1.282.16 2.167.48 2.658.491.467 1.414.702 2.767.702h2.694c.762 0 1.304-.196 1.624-.59.344-.69.577-3.138.701-7.344l4.871 2.177c-.443 4.43-1.07 7.305-1.882 8.635-.959 1.427-2.546 2.14-4.76 2.14h-4.503c-2.928 0-4.773-.554-5.535-1.66-.788-1.107-1.18-2.953-1.18-5.535V38.83h4.723zm-11.33 1.182l4.576.85c-.615 6.74-1.748 12.312-3.396 16.717l-4.872-1.919c1.92-4.209 3.15-9.423 3.692-15.648z" transform="translate(-713 -4077) translate(0 4011) translate(713 66)"></path></g></g></g></g></svg> 